<mxfile host="app.diagrams.net" agent="Mozilla/5.0 (Windows NT 10.0; Win64; x64) AppleWebKit/537.36 (KHTML, like Gecko) Chrome/134.0.0.0 Safari/537.36 Edg/134.0.0.0" version="26.1.1">
  <diagram name="PÃ¡gina-1" id="df_snZFdFoSauUcQg7fh">
    <mxGraphModel dx="3021" dy="2371" grid="1" gridSize="10" guides="1" tooltips="1" connect="1" arrows="1" fold="1" page="1" pageScale="1" pageWidth="827" pageHeight="1169" math="0" shadow="0">
      <root>
        <mxCell id="0" />
        <mxCell id="1" parent="0" />
        <mxCell id="jNTaSUSKe1fC9ofm2qRA-5" value="" style="shape=table;startSize=0;container=1;collapsible=0;childLayout=tableLayout;" parent="1" vertex="1">
          <mxGeometry x="-170" y="70" width="230" height="500" as="geometry" />
        </mxCell>
        <mxCell id="jNTaSUSKe1fC9ofm2qRA-6" value="" style="shape=tableRow;horizontal=0;startSize=0;swimlaneHead=0;swimlaneBody=0;strokeColor=inherit;top=0;left=0;bottom=0;right=0;collapsible=0;dropTarget=0;fillColor=none;points=[[0,0.5],[1,0.5]];portConstraint=eastwest;" parent="jNTaSUSKe1fC9ofm2qRA-5" vertex="1">
          <mxGeometry width="230" height="40" as="geometry" />
        </mxCell>
        <mxCell id="jNTaSUSKe1fC9ofm2qRA-18" value="&lt;font style=&quot;font-size: 18px;&quot;&gt;LIVRO&lt;/font&gt;" style="shape=partialRectangle;html=1;whiteSpace=wrap;connectable=0;strokeColor=#666666;overflow=hidden;fillColor=#f5f5f5;top=0;left=0;bottom=0;right=0;pointerEvents=1;rowspan=1;colspan=2;gradientColor=#b3b3b3;" parent="jNTaSUSKe1fC9ofm2qRA-6" vertex="1">
          <mxGeometry width="230" height="40" as="geometry">
            <mxRectangle width="60" height="40" as="alternateBounds" />
          </mxGeometry>
        </mxCell>
        <mxCell id="jNTaSUSKe1fC9ofm2qRA-7" value="&lt;font style=&quot;font-size: 18px;&quot;&gt;Livro&lt;/font&gt;" style="shape=partialRectangle;html=1;whiteSpace=wrap;connectable=0;strokeColor=inherit;overflow=hidden;fillColor=none;top=0;left=0;bottom=0;right=0;pointerEvents=1;" parent="jNTaSUSKe1fC9ofm2qRA-6" vertex="1" visible="0">
          <mxGeometry x="60" width="170" height="40" as="geometry">
            <mxRectangle width="170" height="40" as="alternateBounds" />
          </mxGeometry>
        </mxCell>
        <mxCell id="jNTaSUSKe1fC9ofm2qRA-8" value="" style="shape=tableRow;horizontal=0;startSize=0;swimlaneHead=0;swimlaneBody=0;strokeColor=inherit;top=0;left=0;bottom=0;right=0;collapsible=0;dropTarget=0;fillColor=none;points=[[0,0.5],[1,0.5]];portConstraint=eastwest;" parent="jNTaSUSKe1fC9ofm2qRA-5" vertex="1">
          <mxGeometry y="40" width="230" height="60" as="geometry" />
        </mxCell>
        <mxCell id="jNTaSUSKe1fC9ofm2qRA-19" value="PK" style="shape=partialRectangle;html=1;whiteSpace=wrap;connectable=0;strokeColor=inherit;overflow=hidden;fillColor=none;top=0;left=0;bottom=0;right=0;pointerEvents=1;" parent="jNTaSUSKe1fC9ofm2qRA-8" vertex="1">
          <mxGeometry width="60" height="60" as="geometry">
            <mxRectangle width="60" height="60" as="alternateBounds" />
          </mxGeometry>
        </mxCell>
        <mxCell id="jNTaSUSKe1fC9ofm2qRA-9" value="Id_livro" style="shape=partialRectangle;html=1;whiteSpace=wrap;connectable=0;strokeColor=inherit;overflow=hidden;fillColor=none;top=0;left=0;bottom=0;right=0;pointerEvents=1;" parent="jNTaSUSKe1fC9ofm2qRA-8" vertex="1">
          <mxGeometry x="60" width="170" height="60" as="geometry">
            <mxRectangle width="170" height="60" as="alternateBounds" />
          </mxGeometry>
        </mxCell>
        <mxCell id="jNTaSUSKe1fC9ofm2qRA-10" value="" style="shape=tableRow;horizontal=0;startSize=0;swimlaneHead=0;swimlaneBody=0;strokeColor=inherit;top=0;left=0;bottom=0;right=0;collapsible=0;dropTarget=0;fillColor=none;points=[[0,0.5],[1,0.5]];portConstraint=eastwest;" parent="jNTaSUSKe1fC9ofm2qRA-5" vertex="1">
          <mxGeometry y="100" width="230" height="40" as="geometry" />
        </mxCell>
        <mxCell id="jNTaSUSKe1fC9ofm2qRA-20" style="shape=partialRectangle;html=1;whiteSpace=wrap;connectable=0;strokeColor=inherit;overflow=hidden;fillColor=none;top=0;left=0;bottom=0;right=0;pointerEvents=1;" parent="jNTaSUSKe1fC9ofm2qRA-10" vertex="1">
          <mxGeometry width="60" height="40" as="geometry">
            <mxRectangle width="60" height="40" as="alternateBounds" />
          </mxGeometry>
        </mxCell>
        <mxCell id="jNTaSUSKe1fC9ofm2qRA-11" value="nome" style="shape=partialRectangle;html=1;whiteSpace=wrap;connectable=0;strokeColor=inherit;overflow=hidden;fillColor=none;top=0;left=0;bottom=0;right=0;pointerEvents=1;" parent="jNTaSUSKe1fC9ofm2qRA-10" vertex="1">
          <mxGeometry x="60" width="170" height="40" as="geometry">
            <mxRectangle width="170" height="40" as="alternateBounds" />
          </mxGeometry>
        </mxCell>
        <mxCell id="jNTaSUSKe1fC9ofm2qRA-253" style="shape=tableRow;horizontal=0;startSize=0;swimlaneHead=0;swimlaneBody=0;strokeColor=inherit;top=0;left=0;bottom=0;right=0;collapsible=0;dropTarget=0;fillColor=none;points=[[0,0.5],[1,0.5]];portConstraint=eastwest;" parent="jNTaSUSKe1fC9ofm2qRA-5" vertex="1">
          <mxGeometry y="140" width="230" height="40" as="geometry" />
        </mxCell>
        <mxCell id="jNTaSUSKe1fC9ofm2qRA-254" style="shape=partialRectangle;html=1;whiteSpace=wrap;connectable=0;strokeColor=inherit;overflow=hidden;fillColor=none;top=0;left=0;bottom=0;right=0;pointerEvents=1;" parent="jNTaSUSKe1fC9ofm2qRA-253" vertex="1">
          <mxGeometry width="60" height="40" as="geometry">
            <mxRectangle width="60" height="40" as="alternateBounds" />
          </mxGeometry>
        </mxCell>
        <mxCell id="jNTaSUSKe1fC9ofm2qRA-255" value="isbn" style="shape=partialRectangle;html=1;whiteSpace=wrap;connectable=0;strokeColor=inherit;overflow=hidden;fillColor=none;top=0;left=0;bottom=0;right=0;pointerEvents=1;" parent="jNTaSUSKe1fC9ofm2qRA-253" vertex="1">
          <mxGeometry x="60" width="170" height="40" as="geometry">
            <mxRectangle width="170" height="40" as="alternateBounds" />
          </mxGeometry>
        </mxCell>
        <mxCell id="jNTaSUSKe1fC9ofm2qRA-12" value="" style="shape=tableRow;horizontal=0;startSize=0;swimlaneHead=0;swimlaneBody=0;strokeColor=inherit;top=0;left=0;bottom=0;right=0;collapsible=0;dropTarget=0;fillColor=none;points=[[0,0.5],[1,0.5]];portConstraint=eastwest;" parent="jNTaSUSKe1fC9ofm2qRA-5" vertex="1">
          <mxGeometry y="180" width="230" height="40" as="geometry" />
        </mxCell>
        <mxCell id="jNTaSUSKe1fC9ofm2qRA-21" value="" style="shape=partialRectangle;html=1;whiteSpace=wrap;connectable=0;strokeColor=inherit;overflow=hidden;fillColor=none;top=0;left=0;bottom=0;right=0;pointerEvents=1;" parent="jNTaSUSKe1fC9ofm2qRA-12" vertex="1">
          <mxGeometry width="60" height="40" as="geometry">
            <mxRectangle width="60" height="40" as="alternateBounds" />
          </mxGeometry>
        </mxCell>
        <mxCell id="jNTaSUSKe1fC9ofm2qRA-13" value="estado_de_conservacao" style="shape=partialRectangle;html=1;whiteSpace=wrap;connectable=0;strokeColor=inherit;overflow=hidden;fillColor=none;top=0;left=0;bottom=0;right=0;pointerEvents=1;" parent="jNTaSUSKe1fC9ofm2qRA-12" vertex="1">
          <mxGeometry x="60" width="170" height="40" as="geometry">
            <mxRectangle width="170" height="40" as="alternateBounds" />
          </mxGeometry>
        </mxCell>
        <mxCell id="jNTaSUSKe1fC9ofm2qRA-14" value="" style="shape=tableRow;horizontal=0;startSize=0;swimlaneHead=0;swimlaneBody=0;strokeColor=inherit;top=0;left=0;bottom=0;right=0;collapsible=0;dropTarget=0;fillColor=none;points=[[0,0.5],[1,0.5]];portConstraint=eastwest;" parent="jNTaSUSKe1fC9ofm2qRA-5" vertex="1">
          <mxGeometry y="220" width="230" height="40" as="geometry" />
        </mxCell>
        <mxCell id="jNTaSUSKe1fC9ofm2qRA-22" style="shape=partialRectangle;html=1;whiteSpace=wrap;connectable=0;strokeColor=inherit;overflow=hidden;fillColor=none;top=0;left=0;bottom=0;right=0;pointerEvents=1;" parent="jNTaSUSKe1fC9ofm2qRA-14" vertex="1">
          <mxGeometry width="60" height="40" as="geometry">
            <mxRectangle width="60" height="40" as="alternateBounds" />
          </mxGeometry>
        </mxCell>
        <mxCell id="jNTaSUSKe1fC9ofm2qRA-15" value="genero_lirario" style="shape=partialRectangle;html=1;whiteSpace=wrap;connectable=0;strokeColor=inherit;overflow=hidden;fillColor=none;top=0;left=0;bottom=0;right=0;pointerEvents=1;" parent="jNTaSUSKe1fC9ofm2qRA-14" vertex="1">
          <mxGeometry x="60" width="170" height="40" as="geometry">
            <mxRectangle width="170" height="40" as="alternateBounds" />
          </mxGeometry>
        </mxCell>
        <mxCell id="jNTaSUSKe1fC9ofm2qRA-16" value="" style="shape=tableRow;horizontal=0;startSize=0;swimlaneHead=0;swimlaneBody=0;strokeColor=inherit;top=0;left=0;bottom=0;right=0;collapsible=0;dropTarget=0;fillColor=none;points=[[0,0.5],[1,0.5]];portConstraint=eastwest;" parent="jNTaSUSKe1fC9ofm2qRA-5" vertex="1">
          <mxGeometry y="260" width="230" height="40" as="geometry" />
        </mxCell>
        <mxCell id="jNTaSUSKe1fC9ofm2qRA-23" style="shape=partialRectangle;html=1;whiteSpace=wrap;connectable=0;strokeColor=inherit;overflow=hidden;fillColor=none;top=0;left=0;bottom=0;right=0;pointerEvents=1;" parent="jNTaSUSKe1fC9ofm2qRA-16" vertex="1">
          <mxGeometry width="60" height="40" as="geometry">
            <mxRectangle width="60" height="40" as="alternateBounds" />
          </mxGeometry>
        </mxCell>
        <mxCell id="jNTaSUSKe1fC9ofm2qRA-17" value="edicao" style="shape=partialRectangle;html=1;whiteSpace=wrap;connectable=0;strokeColor=inherit;overflow=hidden;fillColor=none;top=0;left=0;bottom=0;right=0;pointerEvents=1;" parent="jNTaSUSKe1fC9ofm2qRA-16" vertex="1">
          <mxGeometry x="60" width="170" height="40" as="geometry">
            <mxRectangle width="170" height="40" as="alternateBounds" />
          </mxGeometry>
        </mxCell>
        <mxCell id="-hLwLj78S3W-SjMAlXVM-20" style="shape=tableRow;horizontal=0;startSize=0;swimlaneHead=0;swimlaneBody=0;strokeColor=inherit;top=0;left=0;bottom=0;right=0;collapsible=0;dropTarget=0;fillColor=none;points=[[0,0.5],[1,0.5]];portConstraint=eastwest;" vertex="1" parent="jNTaSUSKe1fC9ofm2qRA-5">
          <mxGeometry y="300" width="230" height="40" as="geometry" />
        </mxCell>
        <mxCell id="-hLwLj78S3W-SjMAlXVM-21" style="shape=partialRectangle;html=1;whiteSpace=wrap;connectable=0;strokeColor=inherit;overflow=hidden;fillColor=none;top=0;left=0;bottom=0;right=0;pointerEvents=1;" vertex="1" parent="-hLwLj78S3W-SjMAlXVM-20">
          <mxGeometry width="60" height="40" as="geometry">
            <mxRectangle width="60" height="40" as="alternateBounds" />
          </mxGeometry>
        </mxCell>
        <mxCell id="-hLwLj78S3W-SjMAlXVM-22" value="quantidade" style="shape=partialRectangle;html=1;whiteSpace=wrap;connectable=0;strokeColor=inherit;overflow=hidden;fillColor=none;top=0;left=0;bottom=0;right=0;pointerEvents=1;" vertex="1" parent="-hLwLj78S3W-SjMAlXVM-20">
          <mxGeometry x="60" width="170" height="40" as="geometry">
            <mxRectangle width="170" height="40" as="alternateBounds" />
          </mxGeometry>
        </mxCell>
        <mxCell id="jNTaSUSKe1fC9ofm2qRA-60" style="shape=tableRow;horizontal=0;startSize=0;swimlaneHead=0;swimlaneBody=0;strokeColor=inherit;top=0;left=0;bottom=0;right=0;collapsible=0;dropTarget=0;fillColor=none;points=[[0,0.5],[1,0.5]];portConstraint=eastwest;" parent="jNTaSUSKe1fC9ofm2qRA-5" vertex="1">
          <mxGeometry y="340" width="230" height="40" as="geometry" />
        </mxCell>
        <mxCell id="jNTaSUSKe1fC9ofm2qRA-61" style="shape=partialRectangle;html=1;whiteSpace=wrap;connectable=0;strokeColor=inherit;overflow=hidden;fillColor=none;top=0;left=0;bottom=0;right=0;pointerEvents=1;" parent="jNTaSUSKe1fC9ofm2qRA-60" vertex="1">
          <mxGeometry width="60" height="40" as="geometry">
            <mxRectangle width="60" height="40" as="alternateBounds" />
          </mxGeometry>
        </mxCell>
        <mxCell id="jNTaSUSKe1fC9ofm2qRA-62" value="ano_publicacao" style="shape=partialRectangle;html=1;whiteSpace=wrap;connectable=0;strokeColor=inherit;overflow=hidden;fillColor=none;top=0;left=0;bottom=0;right=0;pointerEvents=1;" parent="jNTaSUSKe1fC9ofm2qRA-60" vertex="1">
          <mxGeometry x="60" width="170" height="40" as="geometry">
            <mxRectangle width="170" height="40" as="alternateBounds" />
          </mxGeometry>
        </mxCell>
        <mxCell id="jNTaSUSKe1fC9ofm2qRA-63" style="shape=tableRow;horizontal=0;startSize=0;swimlaneHead=0;swimlaneBody=0;strokeColor=inherit;top=0;left=0;bottom=0;right=0;collapsible=0;dropTarget=0;fillColor=none;points=[[0,0.5],[1,0.5]];portConstraint=eastwest;" parent="jNTaSUSKe1fC9ofm2qRA-5" vertex="1">
          <mxGeometry y="380" width="230" height="40" as="geometry" />
        </mxCell>
        <mxCell id="jNTaSUSKe1fC9ofm2qRA-64" value="FK" style="shape=partialRectangle;html=1;whiteSpace=wrap;connectable=0;strokeColor=inherit;overflow=hidden;fillColor=none;top=0;left=0;bottom=0;right=0;pointerEvents=1;" parent="jNTaSUSKe1fC9ofm2qRA-63" vertex="1">
          <mxGeometry width="60" height="40" as="geometry">
            <mxRectangle width="60" height="40" as="alternateBounds" />
          </mxGeometry>
        </mxCell>
        <mxCell id="jNTaSUSKe1fC9ofm2qRA-65" value="id_autor" style="shape=partialRectangle;html=1;whiteSpace=wrap;connectable=0;strokeColor=inherit;overflow=hidden;fillColor=none;top=0;left=0;bottom=0;right=0;pointerEvents=1;" parent="jNTaSUSKe1fC9ofm2qRA-63" vertex="1">
          <mxGeometry x="60" width="170" height="40" as="geometry">
            <mxRectangle width="170" height="40" as="alternateBounds" />
          </mxGeometry>
        </mxCell>
        <mxCell id="-hLwLj78S3W-SjMAlXVM-1" style="shape=tableRow;horizontal=0;startSize=0;swimlaneHead=0;swimlaneBody=0;strokeColor=inherit;top=0;left=0;bottom=0;right=0;collapsible=0;dropTarget=0;fillColor=none;points=[[0,0.5],[1,0.5]];portConstraint=eastwest;" vertex="1" parent="jNTaSUSKe1fC9ofm2qRA-5">
          <mxGeometry y="420" width="230" height="40" as="geometry" />
        </mxCell>
        <mxCell id="-hLwLj78S3W-SjMAlXVM-2" style="shape=partialRectangle;html=1;whiteSpace=wrap;connectable=0;strokeColor=inherit;overflow=hidden;fillColor=none;top=0;left=0;bottom=0;right=0;pointerEvents=1;" vertex="1" parent="-hLwLj78S3W-SjMAlXVM-1">
          <mxGeometry width="60" height="40" as="geometry">
            <mxRectangle width="60" height="40" as="alternateBounds" />
          </mxGeometry>
        </mxCell>
        <mxCell id="-hLwLj78S3W-SjMAlXVM-3" value="numero_de_paginas" style="shape=partialRectangle;html=1;whiteSpace=wrap;connectable=0;strokeColor=inherit;overflow=hidden;fillColor=none;top=0;left=0;bottom=0;right=0;pointerEvents=1;" vertex="1" parent="-hLwLj78S3W-SjMAlXVM-1">
          <mxGeometry x="60" width="170" height="40" as="geometry">
            <mxRectangle width="170" height="40" as="alternateBounds" />
          </mxGeometry>
        </mxCell>
        <mxCell id="-hLwLj78S3W-SjMAlXVM-7" style="shape=tableRow;horizontal=0;startSize=0;swimlaneHead=0;swimlaneBody=0;strokeColor=inherit;top=0;left=0;bottom=0;right=0;collapsible=0;dropTarget=0;fillColor=none;points=[[0,0.5],[1,0.5]];portConstraint=eastwest;" vertex="1" parent="jNTaSUSKe1fC9ofm2qRA-5">
          <mxGeometry y="460" width="230" height="40" as="geometry" />
        </mxCell>
        <mxCell id="-hLwLj78S3W-SjMAlXVM-8" style="shape=partialRectangle;html=1;whiteSpace=wrap;connectable=0;strokeColor=inherit;overflow=hidden;fillColor=none;top=0;left=0;bottom=0;right=0;pointerEvents=1;" vertex="1" parent="-hLwLj78S3W-SjMAlXVM-7">
          <mxGeometry width="60" height="40" as="geometry">
            <mxRectangle width="60" height="40" as="alternateBounds" />
          </mxGeometry>
        </mxCell>
        <mxCell id="-hLwLj78S3W-SjMAlXVM-9" value="disponibilidade&lt;div&gt;&lt;br&gt;&lt;/div&gt;" style="shape=partialRectangle;html=1;whiteSpace=wrap;connectable=0;strokeColor=inherit;overflow=hidden;fillColor=none;top=0;left=0;bottom=0;right=0;pointerEvents=1;" vertex="1" parent="-hLwLj78S3W-SjMAlXVM-7">
          <mxGeometry x="60" width="170" height="40" as="geometry">
            <mxRectangle width="170" height="40" as="alternateBounds" />
          </mxGeometry>
        </mxCell>
        <mxCell id="jNTaSUSKe1fC9ofm2qRA-66" value="" style="shape=table;startSize=0;container=1;collapsible=0;childLayout=tableLayout;" parent="1" vertex="1">
          <mxGeometry x="490" y="510" width="230" height="200" as="geometry" />
        </mxCell>
        <mxCell id="jNTaSUSKe1fC9ofm2qRA-67" value="" style="shape=tableRow;horizontal=0;startSize=0;swimlaneHead=0;swimlaneBody=0;strokeColor=inherit;top=0;left=0;bottom=0;right=0;collapsible=0;dropTarget=0;fillColor=none;points=[[0,0.5],[1,0.5]];portConstraint=eastwest;" parent="jNTaSUSKe1fC9ofm2qRA-66" vertex="1">
          <mxGeometry width="230" height="40" as="geometry" />
        </mxCell>
        <mxCell id="jNTaSUSKe1fC9ofm2qRA-68" value="&lt;font style=&quot;font-size: 18px;&quot;&gt;CLIENTE&lt;/font&gt;" style="shape=partialRectangle;html=1;whiteSpace=wrap;connectable=0;strokeColor=#666666;overflow=hidden;fillColor=#f5f5f5;top=0;left=0;bottom=0;right=0;pointerEvents=1;rowspan=1;colspan=2;gradientColor=#b3b3b3;" parent="jNTaSUSKe1fC9ofm2qRA-67" vertex="1">
          <mxGeometry width="230" height="40" as="geometry">
            <mxRectangle width="60" height="40" as="alternateBounds" />
          </mxGeometry>
        </mxCell>
        <mxCell id="jNTaSUSKe1fC9ofm2qRA-69" value="&lt;font style=&quot;font-size: 18px;&quot;&gt;Livro&lt;/font&gt;" style="shape=partialRectangle;html=1;whiteSpace=wrap;connectable=0;strokeColor=inherit;overflow=hidden;fillColor=none;top=0;left=0;bottom=0;right=0;pointerEvents=1;" parent="jNTaSUSKe1fC9ofm2qRA-67" vertex="1" visible="0">
          <mxGeometry x="60" width="170" height="40" as="geometry">
            <mxRectangle width="170" height="40" as="alternateBounds" />
          </mxGeometry>
        </mxCell>
        <mxCell id="jNTaSUSKe1fC9ofm2qRA-70" value="" style="shape=tableRow;horizontal=0;startSize=0;swimlaneHead=0;swimlaneBody=0;strokeColor=inherit;top=0;left=0;bottom=0;right=0;collapsible=0;dropTarget=0;fillColor=none;points=[[0,0.5],[1,0.5]];portConstraint=eastwest;" parent="jNTaSUSKe1fC9ofm2qRA-66" vertex="1">
          <mxGeometry y="40" width="230" height="40" as="geometry" />
        </mxCell>
        <mxCell id="jNTaSUSKe1fC9ofm2qRA-71" value="PK" style="shape=partialRectangle;html=1;whiteSpace=wrap;connectable=0;strokeColor=inherit;overflow=hidden;fillColor=none;top=0;left=0;bottom=0;right=0;pointerEvents=1;" parent="jNTaSUSKe1fC9ofm2qRA-70" vertex="1">
          <mxGeometry width="60" height="40" as="geometry">
            <mxRectangle width="60" height="40" as="alternateBounds" />
          </mxGeometry>
        </mxCell>
        <mxCell id="jNTaSUSKe1fC9ofm2qRA-72" value="Id_cliente" style="shape=partialRectangle;html=1;whiteSpace=wrap;connectable=0;strokeColor=inherit;overflow=hidden;fillColor=none;top=0;left=0;bottom=0;right=0;pointerEvents=1;" parent="jNTaSUSKe1fC9ofm2qRA-70" vertex="1">
          <mxGeometry x="60" width="170" height="40" as="geometry">
            <mxRectangle width="170" height="40" as="alternateBounds" />
          </mxGeometry>
        </mxCell>
        <mxCell id="jNTaSUSKe1fC9ofm2qRA-73" value="" style="shape=tableRow;horizontal=0;startSize=0;swimlaneHead=0;swimlaneBody=0;strokeColor=inherit;top=0;left=0;bottom=0;right=0;collapsible=0;dropTarget=0;fillColor=none;points=[[0,0.5],[1,0.5]];portConstraint=eastwest;" parent="jNTaSUSKe1fC9ofm2qRA-66" vertex="1">
          <mxGeometry y="80" width="230" height="40" as="geometry" />
        </mxCell>
        <mxCell id="jNTaSUSKe1fC9ofm2qRA-74" style="shape=partialRectangle;html=1;whiteSpace=wrap;connectable=0;strokeColor=inherit;overflow=hidden;fillColor=none;top=0;left=0;bottom=0;right=0;pointerEvents=1;" parent="jNTaSUSKe1fC9ofm2qRA-73" vertex="1">
          <mxGeometry width="60" height="40" as="geometry">
            <mxRectangle width="60" height="40" as="alternateBounds" />
          </mxGeometry>
        </mxCell>
        <mxCell id="jNTaSUSKe1fC9ofm2qRA-75" value="nome" style="shape=partialRectangle;html=1;whiteSpace=wrap;connectable=0;strokeColor=inherit;overflow=hidden;fillColor=none;top=0;left=0;bottom=0;right=0;pointerEvents=1;" parent="jNTaSUSKe1fC9ofm2qRA-73" vertex="1">
          <mxGeometry x="60" width="170" height="40" as="geometry">
            <mxRectangle width="170" height="40" as="alternateBounds" />
          </mxGeometry>
        </mxCell>
        <mxCell id="jNTaSUSKe1fC9ofm2qRA-76" value="" style="shape=tableRow;horizontal=0;startSize=0;swimlaneHead=0;swimlaneBody=0;strokeColor=inherit;top=0;left=0;bottom=0;right=0;collapsible=0;dropTarget=0;fillColor=none;points=[[0,0.5],[1,0.5]];portConstraint=eastwest;" parent="jNTaSUSKe1fC9ofm2qRA-66" vertex="1">
          <mxGeometry y="120" width="230" height="40" as="geometry" />
        </mxCell>
        <mxCell id="jNTaSUSKe1fC9ofm2qRA-77" style="shape=partialRectangle;html=1;whiteSpace=wrap;connectable=0;strokeColor=inherit;overflow=hidden;fillColor=none;top=0;left=0;bottom=0;right=0;pointerEvents=1;" parent="jNTaSUSKe1fC9ofm2qRA-76" vertex="1">
          <mxGeometry width="60" height="40" as="geometry">
            <mxRectangle width="60" height="40" as="alternateBounds" />
          </mxGeometry>
        </mxCell>
        <mxCell id="jNTaSUSKe1fC9ofm2qRA-78" value="telefone" style="shape=partialRectangle;html=1;whiteSpace=wrap;connectable=0;strokeColor=inherit;overflow=hidden;fillColor=none;top=0;left=0;bottom=0;right=0;pointerEvents=1;" parent="jNTaSUSKe1fC9ofm2qRA-76" vertex="1">
          <mxGeometry x="60" width="170" height="40" as="geometry">
            <mxRectangle width="170" height="40" as="alternateBounds" />
          </mxGeometry>
        </mxCell>
        <mxCell id="jNTaSUSKe1fC9ofm2qRA-79" value="" style="shape=tableRow;horizontal=0;startSize=0;swimlaneHead=0;swimlaneBody=0;strokeColor=inherit;top=0;left=0;bottom=0;right=0;collapsible=0;dropTarget=0;fillColor=none;points=[[0,0.5],[1,0.5]];portConstraint=eastwest;" parent="jNTaSUSKe1fC9ofm2qRA-66" vertex="1">
          <mxGeometry y="160" width="230" height="40" as="geometry" />
        </mxCell>
        <mxCell id="jNTaSUSKe1fC9ofm2qRA-80" style="shape=partialRectangle;html=1;whiteSpace=wrap;connectable=0;strokeColor=inherit;overflow=hidden;fillColor=none;top=0;left=0;bottom=0;right=0;pointerEvents=1;" parent="jNTaSUSKe1fC9ofm2qRA-79" vertex="1">
          <mxGeometry width="60" height="40" as="geometry">
            <mxRectangle width="60" height="40" as="alternateBounds" />
          </mxGeometry>
        </mxCell>
        <mxCell id="jNTaSUSKe1fC9ofm2qRA-81" value="email" style="shape=partialRectangle;html=1;whiteSpace=wrap;connectable=0;strokeColor=inherit;overflow=hidden;fillColor=none;top=0;left=0;bottom=0;right=0;pointerEvents=1;" parent="jNTaSUSKe1fC9ofm2qRA-79" vertex="1">
          <mxGeometry x="60" width="170" height="40" as="geometry">
            <mxRectangle width="170" height="40" as="alternateBounds" />
          </mxGeometry>
        </mxCell>
        <mxCell id="jNTaSUSKe1fC9ofm2qRA-91" value="" style="shape=table;startSize=0;container=1;collapsible=0;childLayout=tableLayout;" parent="1" vertex="1">
          <mxGeometry x="170" y="170" width="230" height="200" as="geometry" />
        </mxCell>
        <mxCell id="jNTaSUSKe1fC9ofm2qRA-92" value="" style="shape=tableRow;horizontal=0;startSize=0;swimlaneHead=0;swimlaneBody=0;strokeColor=inherit;top=0;left=0;bottom=0;right=0;collapsible=0;dropTarget=0;fillColor=none;points=[[0,0.5],[1,0.5]];portConstraint=eastwest;" parent="jNTaSUSKe1fC9ofm2qRA-91" vertex="1">
          <mxGeometry width="230" height="40" as="geometry" />
        </mxCell>
        <mxCell id="jNTaSUSKe1fC9ofm2qRA-93" value="&lt;span style=&quot;font-size: 18px;&quot;&gt;ATENDENTE&lt;/span&gt;" style="shape=partialRectangle;html=1;whiteSpace=wrap;connectable=0;strokeColor=#666666;overflow=hidden;fillColor=#f5f5f5;top=0;left=0;bottom=0;right=0;pointerEvents=1;rowspan=1;colspan=2;gradientColor=#b3b3b3;" parent="jNTaSUSKe1fC9ofm2qRA-92" vertex="1">
          <mxGeometry width="230" height="40" as="geometry">
            <mxRectangle width="60" height="40" as="alternateBounds" />
          </mxGeometry>
        </mxCell>
        <mxCell id="jNTaSUSKe1fC9ofm2qRA-94" value="&lt;font style=&quot;font-size: 18px;&quot;&gt;Livro&lt;/font&gt;" style="shape=partialRectangle;html=1;whiteSpace=wrap;connectable=0;strokeColor=inherit;overflow=hidden;fillColor=none;top=0;left=0;bottom=0;right=0;pointerEvents=1;" parent="jNTaSUSKe1fC9ofm2qRA-92" vertex="1" visible="0">
          <mxGeometry x="60" width="170" height="40" as="geometry">
            <mxRectangle width="170" height="40" as="alternateBounds" />
          </mxGeometry>
        </mxCell>
        <mxCell id="jNTaSUSKe1fC9ofm2qRA-95" value="" style="shape=tableRow;horizontal=0;startSize=0;swimlaneHead=0;swimlaneBody=0;strokeColor=inherit;top=0;left=0;bottom=0;right=0;collapsible=0;dropTarget=0;fillColor=none;points=[[0,0.5],[1,0.5]];portConstraint=eastwest;" parent="jNTaSUSKe1fC9ofm2qRA-91" vertex="1">
          <mxGeometry y="40" width="230" height="40" as="geometry" />
        </mxCell>
        <mxCell id="jNTaSUSKe1fC9ofm2qRA-96" value="PK" style="shape=partialRectangle;html=1;whiteSpace=wrap;connectable=0;strokeColor=inherit;overflow=hidden;fillColor=none;top=0;left=0;bottom=0;right=0;pointerEvents=1;" parent="jNTaSUSKe1fC9ofm2qRA-95" vertex="1">
          <mxGeometry width="60" height="40" as="geometry">
            <mxRectangle width="60" height="40" as="alternateBounds" />
          </mxGeometry>
        </mxCell>
        <mxCell id="jNTaSUSKe1fC9ofm2qRA-97" value="Id_atendente" style="shape=partialRectangle;html=1;whiteSpace=wrap;connectable=0;strokeColor=inherit;overflow=hidden;fillColor=none;top=0;left=0;bottom=0;right=0;pointerEvents=1;" parent="jNTaSUSKe1fC9ofm2qRA-95" vertex="1">
          <mxGeometry x="60" width="170" height="40" as="geometry">
            <mxRectangle width="170" height="40" as="alternateBounds" />
          </mxGeometry>
        </mxCell>
        <mxCell id="jNTaSUSKe1fC9ofm2qRA-98" value="" style="shape=tableRow;horizontal=0;startSize=0;swimlaneHead=0;swimlaneBody=0;strokeColor=inherit;top=0;left=0;bottom=0;right=0;collapsible=0;dropTarget=0;fillColor=none;points=[[0,0.5],[1,0.5]];portConstraint=eastwest;" parent="jNTaSUSKe1fC9ofm2qRA-91" vertex="1">
          <mxGeometry y="80" width="230" height="40" as="geometry" />
        </mxCell>
        <mxCell id="jNTaSUSKe1fC9ofm2qRA-99" style="shape=partialRectangle;html=1;whiteSpace=wrap;connectable=0;strokeColor=inherit;overflow=hidden;fillColor=none;top=0;left=0;bottom=0;right=0;pointerEvents=1;" parent="jNTaSUSKe1fC9ofm2qRA-98" vertex="1">
          <mxGeometry width="60" height="40" as="geometry">
            <mxRectangle width="60" height="40" as="alternateBounds" />
          </mxGeometry>
        </mxCell>
        <mxCell id="jNTaSUSKe1fC9ofm2qRA-100" value="nome" style="shape=partialRectangle;html=1;whiteSpace=wrap;connectable=0;strokeColor=inherit;overflow=hidden;fillColor=none;top=0;left=0;bottom=0;right=0;pointerEvents=1;" parent="jNTaSUSKe1fC9ofm2qRA-98" vertex="1">
          <mxGeometry x="60" width="170" height="40" as="geometry">
            <mxRectangle width="170" height="40" as="alternateBounds" />
          </mxGeometry>
        </mxCell>
        <mxCell id="jNTaSUSKe1fC9ofm2qRA-101" value="" style="shape=tableRow;horizontal=0;startSize=0;swimlaneHead=0;swimlaneBody=0;strokeColor=inherit;top=0;left=0;bottom=0;right=0;collapsible=0;dropTarget=0;fillColor=none;points=[[0,0.5],[1,0.5]];portConstraint=eastwest;" parent="jNTaSUSKe1fC9ofm2qRA-91" vertex="1">
          <mxGeometry y="120" width="230" height="40" as="geometry" />
        </mxCell>
        <mxCell id="jNTaSUSKe1fC9ofm2qRA-102" style="shape=partialRectangle;html=1;whiteSpace=wrap;connectable=0;strokeColor=inherit;overflow=hidden;fillColor=none;top=0;left=0;bottom=0;right=0;pointerEvents=1;" parent="jNTaSUSKe1fC9ofm2qRA-101" vertex="1">
          <mxGeometry width="60" height="40" as="geometry">
            <mxRectangle width="60" height="40" as="alternateBounds" />
          </mxGeometry>
        </mxCell>
        <mxCell id="jNTaSUSKe1fC9ofm2qRA-103" value="telefone" style="shape=partialRectangle;html=1;whiteSpace=wrap;connectable=0;strokeColor=inherit;overflow=hidden;fillColor=none;top=0;left=0;bottom=0;right=0;pointerEvents=1;" parent="jNTaSUSKe1fC9ofm2qRA-101" vertex="1">
          <mxGeometry x="60" width="170" height="40" as="geometry">
            <mxRectangle width="170" height="40" as="alternateBounds" />
          </mxGeometry>
        </mxCell>
        <mxCell id="jNTaSUSKe1fC9ofm2qRA-104" value="" style="shape=tableRow;horizontal=0;startSize=0;swimlaneHead=0;swimlaneBody=0;strokeColor=inherit;top=0;left=0;bottom=0;right=0;collapsible=0;dropTarget=0;fillColor=none;points=[[0,0.5],[1,0.5]];portConstraint=eastwest;" parent="jNTaSUSKe1fC9ofm2qRA-91" vertex="1">
          <mxGeometry y="160" width="230" height="40" as="geometry" />
        </mxCell>
        <mxCell id="jNTaSUSKe1fC9ofm2qRA-105" style="shape=partialRectangle;html=1;whiteSpace=wrap;connectable=0;strokeColor=inherit;overflow=hidden;fillColor=none;top=0;left=0;bottom=0;right=0;pointerEvents=1;" parent="jNTaSUSKe1fC9ofm2qRA-104" vertex="1">
          <mxGeometry width="60" height="40" as="geometry">
            <mxRectangle width="60" height="40" as="alternateBounds" />
          </mxGeometry>
        </mxCell>
        <mxCell id="jNTaSUSKe1fC9ofm2qRA-106" value="email" style="shape=partialRectangle;html=1;whiteSpace=wrap;connectable=0;strokeColor=inherit;overflow=hidden;fillColor=none;top=0;left=0;bottom=0;right=0;pointerEvents=1;" parent="jNTaSUSKe1fC9ofm2qRA-104" vertex="1">
          <mxGeometry x="60" width="170" height="40" as="geometry">
            <mxRectangle width="170" height="40" as="alternateBounds" />
          </mxGeometry>
        </mxCell>
        <mxCell id="jNTaSUSKe1fC9ofm2qRA-107" value="" style="shape=table;startSize=0;container=1;collapsible=0;childLayout=tableLayout;" parent="1" vertex="1">
          <mxGeometry x="170" y="435" width="230" height="320" as="geometry" />
        </mxCell>
        <mxCell id="jNTaSUSKe1fC9ofm2qRA-108" value="" style="shape=tableRow;horizontal=0;startSize=0;swimlaneHead=0;swimlaneBody=0;strokeColor=inherit;top=0;left=0;bottom=0;right=0;collapsible=0;dropTarget=0;fillColor=none;points=[[0,0.5],[1,0.5]];portConstraint=eastwest;" parent="jNTaSUSKe1fC9ofm2qRA-107" vertex="1">
          <mxGeometry width="230" height="40" as="geometry" />
        </mxCell>
        <mxCell id="jNTaSUSKe1fC9ofm2qRA-109" value="&lt;font style=&quot;font-size: 18px;&quot;&gt;OPERACAO&lt;/font&gt;" style="shape=partialRectangle;html=1;whiteSpace=wrap;connectable=0;strokeColor=#666666;overflow=hidden;fillColor=#f5f5f5;top=0;left=0;bottom=0;right=0;pointerEvents=1;rowspan=1;colspan=2;gradientColor=#b3b3b3;" parent="jNTaSUSKe1fC9ofm2qRA-108" vertex="1">
          <mxGeometry width="230" height="40" as="geometry">
            <mxRectangle width="60" height="40" as="alternateBounds" />
          </mxGeometry>
        </mxCell>
        <mxCell id="jNTaSUSKe1fC9ofm2qRA-110" value="&lt;font style=&quot;font-size: 18px;&quot;&gt;Livro&lt;/font&gt;" style="shape=partialRectangle;html=1;whiteSpace=wrap;connectable=0;strokeColor=inherit;overflow=hidden;fillColor=none;top=0;left=0;bottom=0;right=0;pointerEvents=1;" parent="jNTaSUSKe1fC9ofm2qRA-108" vertex="1" visible="0">
          <mxGeometry x="60" width="170" height="40" as="geometry">
            <mxRectangle width="170" height="40" as="alternateBounds" />
          </mxGeometry>
        </mxCell>
        <mxCell id="jNTaSUSKe1fC9ofm2qRA-114" value="" style="shape=tableRow;horizontal=0;startSize=0;swimlaneHead=0;swimlaneBody=0;strokeColor=inherit;top=0;left=0;bottom=0;right=0;collapsible=0;dropTarget=0;fillColor=none;points=[[0,0.5],[1,0.5]];portConstraint=eastwest;" parent="jNTaSUSKe1fC9ofm2qRA-107" vertex="1">
          <mxGeometry y="40" width="230" height="40" as="geometry" />
        </mxCell>
        <mxCell id="jNTaSUSKe1fC9ofm2qRA-115" style="shape=partialRectangle;html=1;whiteSpace=wrap;connectable=0;strokeColor=inherit;overflow=hidden;fillColor=none;top=0;left=0;bottom=0;right=0;pointerEvents=1;" parent="jNTaSUSKe1fC9ofm2qRA-114" vertex="1">
          <mxGeometry width="60" height="40" as="geometry">
            <mxRectangle width="60" height="40" as="alternateBounds" />
          </mxGeometry>
        </mxCell>
        <mxCell id="jNTaSUSKe1fC9ofm2qRA-116" value="data_operacao" style="shape=partialRectangle;html=1;whiteSpace=wrap;connectable=0;strokeColor=inherit;overflow=hidden;fillColor=none;top=0;left=0;bottom=0;right=0;pointerEvents=1;" parent="jNTaSUSKe1fC9ofm2qRA-114" vertex="1">
          <mxGeometry x="60" width="170" height="40" as="geometry">
            <mxRectangle width="170" height="40" as="alternateBounds" />
          </mxGeometry>
        </mxCell>
        <mxCell id="jNTaSUSKe1fC9ofm2qRA-117" value="" style="shape=tableRow;horizontal=0;startSize=0;swimlaneHead=0;swimlaneBody=0;strokeColor=inherit;top=0;left=0;bottom=0;right=0;collapsible=0;dropTarget=0;fillColor=none;points=[[0,0.5],[1,0.5]];portConstraint=eastwest;" parent="jNTaSUSKe1fC9ofm2qRA-107" vertex="1">
          <mxGeometry y="80" width="230" height="40" as="geometry" />
        </mxCell>
        <mxCell id="jNTaSUSKe1fC9ofm2qRA-118" value="FK" style="shape=partialRectangle;html=1;whiteSpace=wrap;connectable=0;strokeColor=inherit;overflow=hidden;fillColor=none;top=0;left=0;bottom=0;right=0;pointerEvents=1;" parent="jNTaSUSKe1fC9ofm2qRA-117" vertex="1">
          <mxGeometry width="60" height="40" as="geometry">
            <mxRectangle width="60" height="40" as="alternateBounds" />
          </mxGeometry>
        </mxCell>
        <mxCell id="jNTaSUSKe1fC9ofm2qRA-119" value="id_tipo_operacao" style="shape=partialRectangle;html=1;whiteSpace=wrap;connectable=0;strokeColor=inherit;overflow=hidden;fillColor=none;top=0;left=0;bottom=0;right=0;pointerEvents=1;" parent="jNTaSUSKe1fC9ofm2qRA-117" vertex="1">
          <mxGeometry x="60" width="170" height="40" as="geometry">
            <mxRectangle width="170" height="40" as="alternateBounds" />
          </mxGeometry>
        </mxCell>
        <mxCell id="jNTaSUSKe1fC9ofm2qRA-123" value="" style="shape=tableRow;horizontal=0;startSize=0;swimlaneHead=0;swimlaneBody=0;strokeColor=inherit;top=0;left=0;bottom=0;right=0;collapsible=0;dropTarget=0;fillColor=none;points=[[0,0.5],[1,0.5]];portConstraint=eastwest;" parent="jNTaSUSKe1fC9ofm2qRA-107" vertex="1">
          <mxGeometry y="120" width="230" height="40" as="geometry" />
        </mxCell>
        <mxCell id="jNTaSUSKe1fC9ofm2qRA-124" value="FK" style="shape=partialRectangle;html=1;whiteSpace=wrap;connectable=0;strokeColor=inherit;overflow=hidden;fillColor=none;top=0;left=0;bottom=0;right=0;pointerEvents=1;" parent="jNTaSUSKe1fC9ofm2qRA-123" vertex="1">
          <mxGeometry width="60" height="40" as="geometry">
            <mxRectangle width="60" height="40" as="alternateBounds" />
          </mxGeometry>
        </mxCell>
        <mxCell id="jNTaSUSKe1fC9ofm2qRA-125" value="id_cliente" style="shape=partialRectangle;html=1;whiteSpace=wrap;connectable=0;strokeColor=inherit;overflow=hidden;fillColor=none;top=0;left=0;bottom=0;right=0;pointerEvents=1;" parent="jNTaSUSKe1fC9ofm2qRA-123" vertex="1">
          <mxGeometry x="60" width="170" height="40" as="geometry">
            <mxRectangle width="170" height="40" as="alternateBounds" />
          </mxGeometry>
        </mxCell>
        <mxCell id="jNTaSUSKe1fC9ofm2qRA-126" style="shape=tableRow;horizontal=0;startSize=0;swimlaneHead=0;swimlaneBody=0;strokeColor=inherit;top=0;left=0;bottom=0;right=0;collapsible=0;dropTarget=0;fillColor=none;points=[[0,0.5],[1,0.5]];portConstraint=eastwest;" parent="jNTaSUSKe1fC9ofm2qRA-107" vertex="1">
          <mxGeometry y="160" width="230" height="40" as="geometry" />
        </mxCell>
        <mxCell id="jNTaSUSKe1fC9ofm2qRA-127" value="FK" style="shape=partialRectangle;html=1;whiteSpace=wrap;connectable=0;strokeColor=inherit;overflow=hidden;fillColor=none;top=0;left=0;bottom=0;right=0;pointerEvents=1;" parent="jNTaSUSKe1fC9ofm2qRA-126" vertex="1">
          <mxGeometry width="60" height="40" as="geometry">
            <mxRectangle width="60" height="40" as="alternateBounds" />
          </mxGeometry>
        </mxCell>
        <mxCell id="jNTaSUSKe1fC9ofm2qRA-128" value="id_pagamento" style="shape=partialRectangle;html=1;whiteSpace=wrap;connectable=0;strokeColor=inherit;overflow=hidden;fillColor=none;top=0;left=0;bottom=0;right=0;pointerEvents=1;" parent="jNTaSUSKe1fC9ofm2qRA-126" vertex="1">
          <mxGeometry x="60" width="170" height="40" as="geometry">
            <mxRectangle width="170" height="40" as="alternateBounds" />
          </mxGeometry>
        </mxCell>
        <mxCell id="jNTaSUSKe1fC9ofm2qRA-129" style="shape=tableRow;horizontal=0;startSize=0;swimlaneHead=0;swimlaneBody=0;strokeColor=inherit;top=0;left=0;bottom=0;right=0;collapsible=0;dropTarget=0;fillColor=none;points=[[0,0.5],[1,0.5]];portConstraint=eastwest;" parent="jNTaSUSKe1fC9ofm2qRA-107" vertex="1">
          <mxGeometry y="200" width="230" height="40" as="geometry" />
        </mxCell>
        <mxCell id="jNTaSUSKe1fC9ofm2qRA-130" value="FK" style="shape=partialRectangle;html=1;whiteSpace=wrap;connectable=0;strokeColor=inherit;overflow=hidden;fillColor=none;top=0;left=0;bottom=0;right=0;pointerEvents=1;" parent="jNTaSUSKe1fC9ofm2qRA-129" vertex="1">
          <mxGeometry width="60" height="40" as="geometry">
            <mxRectangle width="60" height="40" as="alternateBounds" />
          </mxGeometry>
        </mxCell>
        <mxCell id="jNTaSUSKe1fC9ofm2qRA-131" value="id_atendente" style="shape=partialRectangle;html=1;whiteSpace=wrap;connectable=0;strokeColor=inherit;overflow=hidden;fillColor=none;top=0;left=0;bottom=0;right=0;pointerEvents=1;" parent="jNTaSUSKe1fC9ofm2qRA-129" vertex="1">
          <mxGeometry x="60" width="170" height="40" as="geometry">
            <mxRectangle width="170" height="40" as="alternateBounds" />
          </mxGeometry>
        </mxCell>
        <mxCell id="jNTaSUSKe1fC9ofm2qRA-135" style="shape=tableRow;horizontal=0;startSize=0;swimlaneHead=0;swimlaneBody=0;strokeColor=inherit;top=0;left=0;bottom=0;right=0;collapsible=0;dropTarget=0;fillColor=none;points=[[0,0.5],[1,0.5]];portConstraint=eastwest;" parent="jNTaSUSKe1fC9ofm2qRA-107" vertex="1">
          <mxGeometry y="240" width="230" height="40" as="geometry" />
        </mxCell>
        <mxCell id="jNTaSUSKe1fC9ofm2qRA-136" value="FK" style="shape=partialRectangle;html=1;whiteSpace=wrap;connectable=0;strokeColor=inherit;overflow=hidden;fillColor=none;top=0;left=0;bottom=0;right=0;pointerEvents=1;" parent="jNTaSUSKe1fC9ofm2qRA-135" vertex="1">
          <mxGeometry width="60" height="40" as="geometry">
            <mxRectangle width="60" height="40" as="alternateBounds" />
          </mxGeometry>
        </mxCell>
        <mxCell id="jNTaSUSKe1fC9ofm2qRA-137" value="id_livro" style="shape=partialRectangle;html=1;whiteSpace=wrap;connectable=0;strokeColor=inherit;overflow=hidden;fillColor=none;top=0;left=0;bottom=0;right=0;pointerEvents=1;" parent="jNTaSUSKe1fC9ofm2qRA-135" vertex="1">
          <mxGeometry x="60" width="170" height="40" as="geometry">
            <mxRectangle width="170" height="40" as="alternateBounds" />
          </mxGeometry>
        </mxCell>
        <mxCell id="-hLwLj78S3W-SjMAlXVM-101" style="shape=tableRow;horizontal=0;startSize=0;swimlaneHead=0;swimlaneBody=0;strokeColor=inherit;top=0;left=0;bottom=0;right=0;collapsible=0;dropTarget=0;fillColor=none;points=[[0,0.5],[1,0.5]];portConstraint=eastwest;" vertex="1" parent="jNTaSUSKe1fC9ofm2qRA-107">
          <mxGeometry y="280" width="230" height="40" as="geometry" />
        </mxCell>
        <mxCell id="-hLwLj78S3W-SjMAlXVM-102" value="PK" style="shape=partialRectangle;html=1;whiteSpace=wrap;connectable=0;strokeColor=inherit;overflow=hidden;fillColor=none;top=0;left=0;bottom=0;right=0;pointerEvents=1;" vertex="1" parent="-hLwLj78S3W-SjMAlXVM-101">
          <mxGeometry width="60" height="40" as="geometry">
            <mxRectangle width="60" height="40" as="alternateBounds" />
          </mxGeometry>
        </mxCell>
        <mxCell id="-hLwLj78S3W-SjMAlXVM-103" value="id_operacao" style="shape=partialRectangle;html=1;whiteSpace=wrap;connectable=0;strokeColor=inherit;overflow=hidden;fillColor=none;top=0;left=0;bottom=0;right=0;pointerEvents=1;" vertex="1" parent="-hLwLj78S3W-SjMAlXVM-101">
          <mxGeometry x="60" width="170" height="40" as="geometry">
            <mxRectangle width="170" height="40" as="alternateBounds" />
          </mxGeometry>
        </mxCell>
        <mxCell id="jNTaSUSKe1fC9ofm2qRA-139" value="" style="shape=table;startSize=0;container=1;collapsible=0;childLayout=tableLayout;" parent="1" vertex="1">
          <mxGeometry x="827" y="490" width="230" height="224.99999999999977" as="geometry" />
        </mxCell>
        <mxCell id="jNTaSUSKe1fC9ofm2qRA-140" value="" style="shape=tableRow;horizontal=0;startSize=0;swimlaneHead=0;swimlaneBody=0;strokeColor=inherit;top=0;left=0;bottom=0;right=0;collapsible=0;dropTarget=0;fillColor=none;points=[[0,0.5],[1,0.5]];portConstraint=eastwest;" parent="jNTaSUSKe1fC9ofm2qRA-139" vertex="1">
          <mxGeometry width="230" height="40" as="geometry" />
        </mxCell>
        <mxCell id="jNTaSUSKe1fC9ofm2qRA-141" value="&lt;span style=&quot;font-size: 18px;&quot;&gt;TIPO DE PAGAMENTO&lt;/span&gt;" style="shape=partialRectangle;html=1;whiteSpace=wrap;connectable=0;strokeColor=#666666;overflow=hidden;fillColor=#f5f5f5;top=0;left=0;bottom=0;right=0;pointerEvents=1;rowspan=1;colspan=2;gradientColor=#b3b3b3;" parent="jNTaSUSKe1fC9ofm2qRA-140" vertex="1">
          <mxGeometry width="230" height="40" as="geometry">
            <mxRectangle width="60" height="40" as="alternateBounds" />
          </mxGeometry>
        </mxCell>
        <mxCell id="jNTaSUSKe1fC9ofm2qRA-142" value="&lt;font style=&quot;font-size: 18px;&quot;&gt;Livro&lt;/font&gt;" style="shape=partialRectangle;html=1;whiteSpace=wrap;connectable=0;strokeColor=inherit;overflow=hidden;fillColor=none;top=0;left=0;bottom=0;right=0;pointerEvents=1;" parent="jNTaSUSKe1fC9ofm2qRA-140" vertex="1" visible="0">
          <mxGeometry x="60" width="170" height="40" as="geometry">
            <mxRectangle width="170" height="40" as="alternateBounds" />
          </mxGeometry>
        </mxCell>
        <mxCell id="jNTaSUSKe1fC9ofm2qRA-143" value="" style="shape=tableRow;horizontal=0;startSize=0;swimlaneHead=0;swimlaneBody=0;strokeColor=inherit;top=0;left=0;bottom=0;right=0;collapsible=0;dropTarget=0;fillColor=none;points=[[0,0.5],[1,0.5]];portConstraint=eastwest;" parent="jNTaSUSKe1fC9ofm2qRA-139" vertex="1">
          <mxGeometry y="40" width="230" height="60" as="geometry" />
        </mxCell>
        <mxCell id="jNTaSUSKe1fC9ofm2qRA-144" value="PK" style="shape=partialRectangle;html=1;whiteSpace=wrap;connectable=0;strokeColor=inherit;overflow=hidden;fillColor=none;top=0;left=0;bottom=0;right=0;pointerEvents=1;" parent="jNTaSUSKe1fC9ofm2qRA-143" vertex="1">
          <mxGeometry width="60" height="60" as="geometry">
            <mxRectangle width="60" height="60" as="alternateBounds" />
          </mxGeometry>
        </mxCell>
        <mxCell id="jNTaSUSKe1fC9ofm2qRA-145" value="id_pagamento" style="shape=partialRectangle;html=1;whiteSpace=wrap;connectable=0;strokeColor=inherit;overflow=hidden;fillColor=none;top=0;left=0;bottom=0;right=0;pointerEvents=1;" parent="jNTaSUSKe1fC9ofm2qRA-143" vertex="1">
          <mxGeometry x="60" width="170" height="60" as="geometry">
            <mxRectangle width="170" height="60" as="alternateBounds" />
          </mxGeometry>
        </mxCell>
        <mxCell id="-hLwLj78S3W-SjMAlXVM-115" value="" style="rounded=1;whiteSpace=wrap;html=1;" vertex="1" parent="jNTaSUSKe1fC9ofm2qRA-143">
          <mxGeometry x="230" width="NaN" height="60" as="geometry">
            <mxRectangle width="NaN" height="60" as="alternateBounds" />
          </mxGeometry>
        </mxCell>
        <mxCell id="jNTaSUSKe1fC9ofm2qRA-146" value="" style="shape=tableRow;horizontal=0;startSize=0;swimlaneHead=0;swimlaneBody=0;strokeColor=inherit;top=0;left=0;bottom=0;right=0;collapsible=0;dropTarget=0;fillColor=none;points=[[0,0.5],[1,0.5]];portConstraint=eastwest;" parent="jNTaSUSKe1fC9ofm2qRA-139" vertex="1">
          <mxGeometry y="100" width="230" height="40" as="geometry" />
        </mxCell>
        <mxCell id="jNTaSUSKe1fC9ofm2qRA-147" style="shape=partialRectangle;html=1;whiteSpace=wrap;connectable=0;strokeColor=inherit;overflow=hidden;fillColor=none;top=0;left=0;bottom=0;right=0;pointerEvents=1;" parent="jNTaSUSKe1fC9ofm2qRA-146" vertex="1">
          <mxGeometry width="60" height="40" as="geometry">
            <mxRectangle width="60" height="40" as="alternateBounds" />
          </mxGeometry>
        </mxCell>
        <mxCell id="jNTaSUSKe1fC9ofm2qRA-148" value="forma_de_pagamento" style="shape=partialRectangle;html=1;whiteSpace=wrap;connectable=0;strokeColor=inherit;overflow=hidden;fillColor=none;top=0;left=0;bottom=0;right=0;pointerEvents=1;" parent="jNTaSUSKe1fC9ofm2qRA-146" vertex="1">
          <mxGeometry x="60" width="170" height="40" as="geometry">
            <mxRectangle width="170" height="40" as="alternateBounds" />
          </mxGeometry>
        </mxCell>
        <mxCell id="jNTaSUSKe1fC9ofm2qRA-210" style="shape=tableRow;horizontal=0;startSize=0;swimlaneHead=0;swimlaneBody=0;strokeColor=inherit;top=0;left=0;bottom=0;right=0;collapsible=0;dropTarget=0;fillColor=none;points=[[0,0.5],[1,0.5]];portConstraint=eastwest;" parent="jNTaSUSKe1fC9ofm2qRA-139" vertex="1">
          <mxGeometry y="140" width="230" height="45" as="geometry" />
        </mxCell>
        <mxCell id="jNTaSUSKe1fC9ofm2qRA-211" style="shape=partialRectangle;html=1;whiteSpace=wrap;connectable=0;strokeColor=inherit;overflow=hidden;fillColor=none;top=0;left=0;bottom=0;right=0;pointerEvents=1;" parent="jNTaSUSKe1fC9ofm2qRA-210" vertex="1">
          <mxGeometry width="60" height="45" as="geometry">
            <mxRectangle width="60" height="45" as="alternateBounds" />
          </mxGeometry>
        </mxCell>
        <mxCell id="jNTaSUSKe1fC9ofm2qRA-212" value="data_pagamento" style="shape=partialRectangle;html=1;whiteSpace=wrap;connectable=0;strokeColor=inherit;overflow=hidden;fillColor=none;top=0;left=0;bottom=0;right=0;pointerEvents=1;" parent="jNTaSUSKe1fC9ofm2qRA-210" vertex="1">
          <mxGeometry x="60" width="170" height="45" as="geometry">
            <mxRectangle width="170" height="45" as="alternateBounds" />
          </mxGeometry>
        </mxCell>
        <mxCell id="jNTaSUSKe1fC9ofm2qRA-149" value="" style="shape=tableRow;horizontal=0;startSize=0;swimlaneHead=0;swimlaneBody=0;strokeColor=inherit;top=0;left=0;bottom=0;right=0;collapsible=0;dropTarget=0;fillColor=none;points=[[0,0.5],[1,0.5]];portConstraint=eastwest;" parent="jNTaSUSKe1fC9ofm2qRA-139" vertex="1">
          <mxGeometry y="185" width="230" height="40" as="geometry" />
        </mxCell>
        <mxCell id="jNTaSUSKe1fC9ofm2qRA-150" style="shape=partialRectangle;html=1;whiteSpace=wrap;connectable=0;strokeColor=inherit;overflow=hidden;fillColor=none;top=0;left=0;bottom=0;right=0;pointerEvents=1;" parent="jNTaSUSKe1fC9ofm2qRA-149" vertex="1">
          <mxGeometry width="60" height="40" as="geometry">
            <mxRectangle width="60" height="40" as="alternateBounds" />
          </mxGeometry>
        </mxCell>
        <mxCell id="jNTaSUSKe1fC9ofm2qRA-151" value="parcelas" style="shape=partialRectangle;html=1;whiteSpace=wrap;connectable=0;strokeColor=inherit;overflow=hidden;fillColor=none;top=0;left=0;bottom=0;right=0;pointerEvents=1;" parent="jNTaSUSKe1fC9ofm2qRA-149" vertex="1">
          <mxGeometry x="60" width="170" height="40" as="geometry">
            <mxRectangle width="170" height="40" as="alternateBounds" />
          </mxGeometry>
        </mxCell>
        <mxCell id="jNTaSUSKe1fC9ofm2qRA-169" value="" style="shape=table;startSize=0;container=1;collapsible=0;childLayout=tableLayout;" parent="1" vertex="1">
          <mxGeometry x="820" y="-90" width="230" height="320" as="geometry" />
        </mxCell>
        <mxCell id="jNTaSUSKe1fC9ofm2qRA-170" value="" style="shape=tableRow;horizontal=0;startSize=0;swimlaneHead=0;swimlaneBody=0;strokeColor=inherit;top=0;left=0;bottom=0;right=0;collapsible=0;dropTarget=0;fillColor=none;points=[[0,0.5],[1,0.5]];portConstraint=eastwest;" parent="jNTaSUSKe1fC9ofm2qRA-169" vertex="1">
          <mxGeometry width="230" height="40" as="geometry" />
        </mxCell>
        <mxCell id="jNTaSUSKe1fC9ofm2qRA-171" value="&lt;span style=&quot;font-size: 18px;&quot;&gt;ALUGUEL&lt;/span&gt;" style="shape=partialRectangle;html=1;whiteSpace=wrap;connectable=0;strokeColor=#666666;overflow=hidden;fillColor=#f5f5f5;top=0;left=0;bottom=0;right=0;pointerEvents=1;rowspan=1;colspan=2;gradientColor=#b3b3b3;" parent="jNTaSUSKe1fC9ofm2qRA-170" vertex="1">
          <mxGeometry width="230" height="40" as="geometry">
            <mxRectangle width="60" height="40" as="alternateBounds" />
          </mxGeometry>
        </mxCell>
        <mxCell id="jNTaSUSKe1fC9ofm2qRA-172" value="&lt;font style=&quot;font-size: 18px;&quot;&gt;Livro&lt;/font&gt;" style="shape=partialRectangle;html=1;whiteSpace=wrap;connectable=0;strokeColor=inherit;overflow=hidden;fillColor=none;top=0;left=0;bottom=0;right=0;pointerEvents=1;" parent="jNTaSUSKe1fC9ofm2qRA-170" vertex="1" visible="0">
          <mxGeometry x="60" width="170" height="40" as="geometry">
            <mxRectangle width="170" height="40" as="alternateBounds" />
          </mxGeometry>
        </mxCell>
        <mxCell id="jNTaSUSKe1fC9ofm2qRA-173" value="" style="shape=tableRow;horizontal=0;startSize=0;swimlaneHead=0;swimlaneBody=0;strokeColor=inherit;top=0;left=0;bottom=0;right=0;collapsible=0;dropTarget=0;fillColor=none;points=[[0,0.5],[1,0.5]];portConstraint=eastwest;" parent="jNTaSUSKe1fC9ofm2qRA-169" vertex="1">
          <mxGeometry y="40" width="230" height="40" as="geometry" />
        </mxCell>
        <mxCell id="jNTaSUSKe1fC9ofm2qRA-174" value="FK" style="shape=partialRectangle;html=1;whiteSpace=wrap;connectable=0;strokeColor=inherit;overflow=hidden;fillColor=none;top=0;left=0;bottom=0;right=0;pointerEvents=1;" parent="jNTaSUSKe1fC9ofm2qRA-173" vertex="1">
          <mxGeometry width="60" height="40" as="geometry">
            <mxRectangle width="60" height="40" as="alternateBounds" />
          </mxGeometry>
        </mxCell>
        <mxCell id="jNTaSUSKe1fC9ofm2qRA-175" value="id_livro" style="shape=partialRectangle;html=1;whiteSpace=wrap;connectable=0;strokeColor=inherit;overflow=hidden;fillColor=none;top=0;left=0;bottom=0;right=0;pointerEvents=1;" parent="jNTaSUSKe1fC9ofm2qRA-173" vertex="1">
          <mxGeometry x="60" width="170" height="40" as="geometry">
            <mxRectangle width="170" height="40" as="alternateBounds" />
          </mxGeometry>
        </mxCell>
        <mxCell id="jNTaSUSKe1fC9ofm2qRA-241" style="shape=tableRow;horizontal=0;startSize=0;swimlaneHead=0;swimlaneBody=0;strokeColor=inherit;top=0;left=0;bottom=0;right=0;collapsible=0;dropTarget=0;fillColor=none;points=[[0,0.5],[1,0.5]];portConstraint=eastwest;" parent="jNTaSUSKe1fC9ofm2qRA-169" vertex="1">
          <mxGeometry y="80" width="230" height="40" as="geometry" />
        </mxCell>
        <mxCell id="jNTaSUSKe1fC9ofm2qRA-242" value="PK" style="shape=partialRectangle;html=1;whiteSpace=wrap;connectable=0;strokeColor=inherit;overflow=hidden;fillColor=none;top=0;left=0;bottom=0;right=0;pointerEvents=1;" parent="jNTaSUSKe1fC9ofm2qRA-241" vertex="1">
          <mxGeometry width="60" height="40" as="geometry">
            <mxRectangle width="60" height="40" as="alternateBounds" />
          </mxGeometry>
        </mxCell>
        <mxCell id="jNTaSUSKe1fC9ofm2qRA-243" value="id_aluguel" style="shape=partialRectangle;html=1;whiteSpace=wrap;connectable=0;strokeColor=inherit;overflow=hidden;fillColor=none;top=0;left=0;bottom=0;right=0;pointerEvents=1;" parent="jNTaSUSKe1fC9ofm2qRA-241" vertex="1">
          <mxGeometry x="60" width="170" height="40" as="geometry">
            <mxRectangle width="170" height="40" as="alternateBounds" />
          </mxGeometry>
        </mxCell>
        <mxCell id="jNTaSUSKe1fC9ofm2qRA-176" value="" style="shape=tableRow;horizontal=0;startSize=0;swimlaneHead=0;swimlaneBody=0;strokeColor=inherit;top=0;left=0;bottom=0;right=0;collapsible=0;dropTarget=0;fillColor=none;points=[[0,0.5],[1,0.5]];portConstraint=eastwest;" parent="jNTaSUSKe1fC9ofm2qRA-169" vertex="1">
          <mxGeometry y="120" width="230" height="40" as="geometry" />
        </mxCell>
        <mxCell id="jNTaSUSKe1fC9ofm2qRA-177" style="shape=partialRectangle;html=1;whiteSpace=wrap;connectable=0;strokeColor=inherit;overflow=hidden;fillColor=none;top=0;left=0;bottom=0;right=0;pointerEvents=1;" parent="jNTaSUSKe1fC9ofm2qRA-176" vertex="1">
          <mxGeometry width="60" height="40" as="geometry">
            <mxRectangle width="60" height="40" as="alternateBounds" />
          </mxGeometry>
        </mxCell>
        <mxCell id="jNTaSUSKe1fC9ofm2qRA-178" value="dias_alugados" style="shape=partialRectangle;html=1;whiteSpace=wrap;connectable=0;strokeColor=inherit;overflow=hidden;fillColor=none;top=0;left=0;bottom=0;right=0;pointerEvents=1;" parent="jNTaSUSKe1fC9ofm2qRA-176" vertex="1">
          <mxGeometry x="60" width="170" height="40" as="geometry">
            <mxRectangle width="170" height="40" as="alternateBounds" />
          </mxGeometry>
        </mxCell>
        <mxCell id="-hLwLj78S3W-SjMAlXVM-91" style="shape=tableRow;horizontal=0;startSize=0;swimlaneHead=0;swimlaneBody=0;strokeColor=inherit;top=0;left=0;bottom=0;right=0;collapsible=0;dropTarget=0;fillColor=none;points=[[0,0.5],[1,0.5]];portConstraint=eastwest;" vertex="1" parent="jNTaSUSKe1fC9ofm2qRA-169">
          <mxGeometry y="160" width="230" height="40" as="geometry" />
        </mxCell>
        <mxCell id="-hLwLj78S3W-SjMAlXVM-92" style="shape=partialRectangle;html=1;whiteSpace=wrap;connectable=0;strokeColor=inherit;overflow=hidden;fillColor=none;top=0;left=0;bottom=0;right=0;pointerEvents=1;" vertex="1" parent="-hLwLj78S3W-SjMAlXVM-91">
          <mxGeometry width="60" height="40" as="geometry">
            <mxRectangle width="60" height="40" as="alternateBounds" />
          </mxGeometry>
        </mxCell>
        <mxCell id="-hLwLj78S3W-SjMAlXVM-93" value="data_aluguel" style="shape=partialRectangle;html=1;whiteSpace=wrap;connectable=0;strokeColor=inherit;overflow=hidden;fillColor=none;top=0;left=0;bottom=0;right=0;pointerEvents=1;" vertex="1" parent="-hLwLj78S3W-SjMAlXVM-91">
          <mxGeometry x="60" width="170" height="40" as="geometry">
            <mxRectangle width="170" height="40" as="alternateBounds" />
          </mxGeometry>
        </mxCell>
        <mxCell id="jNTaSUSKe1fC9ofm2qRA-179" value="" style="shape=tableRow;horizontal=0;startSize=0;swimlaneHead=0;swimlaneBody=0;strokeColor=inherit;top=0;left=0;bottom=0;right=0;collapsible=0;dropTarget=0;fillColor=none;points=[[0,0.5],[1,0.5]];portConstraint=eastwest;" parent="jNTaSUSKe1fC9ofm2qRA-169" vertex="1">
          <mxGeometry y="200" width="230" height="40" as="geometry" />
        </mxCell>
        <mxCell id="jNTaSUSKe1fC9ofm2qRA-180" value="" style="shape=partialRectangle;html=1;whiteSpace=wrap;connectable=0;strokeColor=inherit;overflow=hidden;fillColor=none;top=0;left=0;bottom=0;right=0;pointerEvents=1;" parent="jNTaSUSKe1fC9ofm2qRA-179" vertex="1">
          <mxGeometry width="60" height="40" as="geometry">
            <mxRectangle width="60" height="40" as="alternateBounds" />
          </mxGeometry>
        </mxCell>
        <mxCell id="jNTaSUSKe1fC9ofm2qRA-181" value="data_devolucao" style="shape=partialRectangle;html=1;whiteSpace=wrap;connectable=0;strokeColor=inherit;overflow=hidden;fillColor=none;top=0;left=0;bottom=0;right=0;pointerEvents=1;" parent="jNTaSUSKe1fC9ofm2qRA-179" vertex="1">
          <mxGeometry x="60" width="170" height="40" as="geometry">
            <mxRectangle width="170" height="40" as="alternateBounds" />
          </mxGeometry>
        </mxCell>
        <mxCell id="jNTaSUSKe1fC9ofm2qRA-185" style="shape=tableRow;horizontal=0;startSize=0;swimlaneHead=0;swimlaneBody=0;strokeColor=inherit;top=0;left=0;bottom=0;right=0;collapsible=0;dropTarget=0;fillColor=none;points=[[0,0.5],[1,0.5]];portConstraint=eastwest;" parent="jNTaSUSKe1fC9ofm2qRA-169" vertex="1">
          <mxGeometry y="240" width="230" height="40" as="geometry" />
        </mxCell>
        <mxCell id="jNTaSUSKe1fC9ofm2qRA-186" value="FK" style="shape=partialRectangle;html=1;whiteSpace=wrap;connectable=0;strokeColor=inherit;overflow=hidden;fillColor=none;top=0;left=0;bottom=0;right=0;pointerEvents=1;" parent="jNTaSUSKe1fC9ofm2qRA-185" vertex="1">
          <mxGeometry width="60" height="40" as="geometry">
            <mxRectangle width="60" height="40" as="alternateBounds" />
          </mxGeometry>
        </mxCell>
        <mxCell id="jNTaSUSKe1fC9ofm2qRA-187" value="id_multa" style="shape=partialRectangle;html=1;whiteSpace=wrap;connectable=0;strokeColor=inherit;overflow=hidden;fillColor=none;top=0;left=0;bottom=0;right=0;pointerEvents=1;" parent="jNTaSUSKe1fC9ofm2qRA-185" vertex="1">
          <mxGeometry x="60" width="170" height="40" as="geometry">
            <mxRectangle width="170" height="40" as="alternateBounds" />
          </mxGeometry>
        </mxCell>
        <mxCell id="jNTaSUSKe1fC9ofm2qRA-182" style="shape=tableRow;horizontal=0;startSize=0;swimlaneHead=0;swimlaneBody=0;strokeColor=inherit;top=0;left=0;bottom=0;right=0;collapsible=0;dropTarget=0;fillColor=none;points=[[0,0.5],[1,0.5]];portConstraint=eastwest;" parent="jNTaSUSKe1fC9ofm2qRA-169" vertex="1">
          <mxGeometry y="280" width="230" height="40" as="geometry" />
        </mxCell>
        <mxCell id="jNTaSUSKe1fC9ofm2qRA-183" value="FK" style="shape=partialRectangle;html=1;whiteSpace=wrap;connectable=0;strokeColor=inherit;overflow=hidden;fillColor=none;top=0;left=0;bottom=0;right=0;pointerEvents=1;" parent="jNTaSUSKe1fC9ofm2qRA-182" vertex="1">
          <mxGeometry width="60" height="40" as="geometry">
            <mxRectangle width="60" height="40" as="alternateBounds" />
          </mxGeometry>
        </mxCell>
        <mxCell id="jNTaSUSKe1fC9ofm2qRA-184" value="id_pagamento" style="shape=partialRectangle;html=1;whiteSpace=wrap;connectable=0;strokeColor=inherit;overflow=hidden;fillColor=none;top=0;left=0;bottom=0;right=0;pointerEvents=1;" parent="jNTaSUSKe1fC9ofm2qRA-182" vertex="1">
          <mxGeometry x="60" width="170" height="40" as="geometry">
            <mxRectangle width="170" height="40" as="alternateBounds" />
          </mxGeometry>
        </mxCell>
        <mxCell id="jNTaSUSKe1fC9ofm2qRA-190" value="" style="shape=table;startSize=0;container=1;collapsible=0;childLayout=tableLayout;" parent="1" vertex="1">
          <mxGeometry x="820" y="290" width="230" height="160" as="geometry" />
        </mxCell>
        <mxCell id="jNTaSUSKe1fC9ofm2qRA-191" value="" style="shape=tableRow;horizontal=0;startSize=0;swimlaneHead=0;swimlaneBody=0;strokeColor=inherit;top=0;left=0;bottom=0;right=0;collapsible=0;dropTarget=0;fillColor=none;points=[[0,0.5],[1,0.5]];portConstraint=eastwest;" parent="jNTaSUSKe1fC9ofm2qRA-190" vertex="1">
          <mxGeometry width="230" height="40" as="geometry" />
        </mxCell>
        <mxCell id="jNTaSUSKe1fC9ofm2qRA-192" value="&lt;span style=&quot;font-size: 18px;&quot;&gt;MULTA&lt;/span&gt;" style="shape=partialRectangle;html=1;whiteSpace=wrap;connectable=0;strokeColor=#666666;overflow=hidden;fillColor=#f5f5f5;top=0;left=0;bottom=0;right=0;pointerEvents=1;rowspan=1;colspan=2;gradientColor=#b3b3b3;" parent="jNTaSUSKe1fC9ofm2qRA-191" vertex="1">
          <mxGeometry width="230" height="40" as="geometry">
            <mxRectangle width="60" height="40" as="alternateBounds" />
          </mxGeometry>
        </mxCell>
        <mxCell id="jNTaSUSKe1fC9ofm2qRA-193" value="&lt;font style=&quot;font-size: 18px;&quot;&gt;Livro&lt;/font&gt;" style="shape=partialRectangle;html=1;whiteSpace=wrap;connectable=0;strokeColor=inherit;overflow=hidden;fillColor=none;top=0;left=0;bottom=0;right=0;pointerEvents=1;" parent="jNTaSUSKe1fC9ofm2qRA-191" vertex="1" visible="0">
          <mxGeometry x="60" width="170" height="40" as="geometry">
            <mxRectangle width="170" height="40" as="alternateBounds" />
          </mxGeometry>
        </mxCell>
        <mxCell id="jNTaSUSKe1fC9ofm2qRA-194" value="" style="shape=tableRow;horizontal=0;startSize=0;swimlaneHead=0;swimlaneBody=0;strokeColor=inherit;top=0;left=0;bottom=0;right=0;collapsible=0;dropTarget=0;fillColor=none;points=[[0,0.5],[1,0.5]];portConstraint=eastwest;" parent="jNTaSUSKe1fC9ofm2qRA-190" vertex="1">
          <mxGeometry y="40" width="230" height="40" as="geometry" />
        </mxCell>
        <mxCell id="jNTaSUSKe1fC9ofm2qRA-195" value="PK" style="shape=partialRectangle;html=1;whiteSpace=wrap;connectable=0;strokeColor=inherit;overflow=hidden;fillColor=none;top=0;left=0;bottom=0;right=0;pointerEvents=1;" parent="jNTaSUSKe1fC9ofm2qRA-194" vertex="1">
          <mxGeometry width="60" height="40" as="geometry">
            <mxRectangle width="60" height="40" as="alternateBounds" />
          </mxGeometry>
        </mxCell>
        <mxCell id="jNTaSUSKe1fC9ofm2qRA-196" value="id_multa" style="shape=partialRectangle;html=1;whiteSpace=wrap;connectable=0;strokeColor=inherit;overflow=hidden;fillColor=none;top=0;left=0;bottom=0;right=0;pointerEvents=1;" parent="jNTaSUSKe1fC9ofm2qRA-194" vertex="1">
          <mxGeometry x="60" width="170" height="40" as="geometry">
            <mxRectangle width="170" height="40" as="alternateBounds" />
          </mxGeometry>
        </mxCell>
        <mxCell id="jNTaSUSKe1fC9ofm2qRA-197" value="" style="shape=tableRow;horizontal=0;startSize=0;swimlaneHead=0;swimlaneBody=0;strokeColor=inherit;top=0;left=0;bottom=0;right=0;collapsible=0;dropTarget=0;fillColor=none;points=[[0,0.5],[1,0.5]];portConstraint=eastwest;" parent="jNTaSUSKe1fC9ofm2qRA-190" vertex="1">
          <mxGeometry y="80" width="230" height="40" as="geometry" />
        </mxCell>
        <mxCell id="jNTaSUSKe1fC9ofm2qRA-198" value="" style="shape=partialRectangle;html=1;whiteSpace=wrap;connectable=0;strokeColor=inherit;overflow=hidden;fillColor=none;top=0;left=0;bottom=0;right=0;pointerEvents=1;" parent="jNTaSUSKe1fC9ofm2qRA-197" vertex="1">
          <mxGeometry width="60" height="40" as="geometry">
            <mxRectangle width="60" height="40" as="alternateBounds" />
          </mxGeometry>
        </mxCell>
        <mxCell id="jNTaSUSKe1fC9ofm2qRA-199" value="tipo_multa" style="shape=partialRectangle;html=1;whiteSpace=wrap;connectable=0;strokeColor=inherit;overflow=hidden;fillColor=none;top=0;left=0;bottom=0;right=0;pointerEvents=1;" parent="jNTaSUSKe1fC9ofm2qRA-197" vertex="1">
          <mxGeometry x="60" width="170" height="40" as="geometry">
            <mxRectangle width="170" height="40" as="alternateBounds" />
          </mxGeometry>
        </mxCell>
        <mxCell id="jNTaSUSKe1fC9ofm2qRA-215" style="shape=tableRow;horizontal=0;startSize=0;swimlaneHead=0;swimlaneBody=0;strokeColor=inherit;top=0;left=0;bottom=0;right=0;collapsible=0;dropTarget=0;fillColor=none;points=[[0,0.5],[1,0.5]];portConstraint=eastwest;" parent="jNTaSUSKe1fC9ofm2qRA-190" vertex="1">
          <mxGeometry y="120" width="230" height="40" as="geometry" />
        </mxCell>
        <mxCell id="jNTaSUSKe1fC9ofm2qRA-216" value="FK" style="shape=partialRectangle;html=1;whiteSpace=wrap;connectable=0;strokeColor=inherit;overflow=hidden;fillColor=none;top=0;left=0;bottom=0;right=0;pointerEvents=1;" parent="jNTaSUSKe1fC9ofm2qRA-215" vertex="1">
          <mxGeometry width="60" height="40" as="geometry">
            <mxRectangle width="60" height="40" as="alternateBounds" />
          </mxGeometry>
        </mxCell>
        <mxCell id="jNTaSUSKe1fC9ofm2qRA-217" value="id_pagamento" style="shape=partialRectangle;html=1;whiteSpace=wrap;connectable=0;strokeColor=inherit;overflow=hidden;fillColor=none;top=0;left=0;bottom=0;right=0;pointerEvents=1;" parent="jNTaSUSKe1fC9ofm2qRA-215" vertex="1">
          <mxGeometry x="60" width="170" height="40" as="geometry">
            <mxRectangle width="170" height="40" as="alternateBounds" />
          </mxGeometry>
        </mxCell>
        <mxCell id="jNTaSUSKe1fC9ofm2qRA-228" value="" style="shape=table;startSize=0;container=1;collapsible=0;childLayout=tableLayout;" parent="1" vertex="1">
          <mxGeometry x="490" y="275" width="230" height="160" as="geometry" />
        </mxCell>
        <mxCell id="jNTaSUSKe1fC9ofm2qRA-229" value="" style="shape=tableRow;horizontal=0;startSize=0;swimlaneHead=0;swimlaneBody=0;strokeColor=inherit;top=0;left=0;bottom=0;right=0;collapsible=0;dropTarget=0;fillColor=none;points=[[0,0.5],[1,0.5]];portConstraint=eastwest;" parent="jNTaSUSKe1fC9ofm2qRA-228" vertex="1">
          <mxGeometry width="230" height="40" as="geometry" />
        </mxCell>
        <mxCell id="jNTaSUSKe1fC9ofm2qRA-230" value="&lt;span style=&quot;font-size: 18px;&quot;&gt;COMPRA&lt;/span&gt;" style="shape=partialRectangle;html=1;whiteSpace=wrap;connectable=0;strokeColor=#666666;overflow=hidden;fillColor=#f5f5f5;top=0;left=0;bottom=0;right=0;pointerEvents=1;rowspan=1;colspan=2;gradientColor=#b3b3b3;" parent="jNTaSUSKe1fC9ofm2qRA-229" vertex="1">
          <mxGeometry width="230" height="40" as="geometry">
            <mxRectangle width="60" height="40" as="alternateBounds" />
          </mxGeometry>
        </mxCell>
        <mxCell id="jNTaSUSKe1fC9ofm2qRA-231" value="&lt;font style=&quot;font-size: 18px;&quot;&gt;Livro&lt;/font&gt;" style="shape=partialRectangle;html=1;whiteSpace=wrap;connectable=0;strokeColor=inherit;overflow=hidden;fillColor=none;top=0;left=0;bottom=0;right=0;pointerEvents=1;" parent="jNTaSUSKe1fC9ofm2qRA-229" vertex="1" visible="0">
          <mxGeometry x="60" width="170" height="40" as="geometry">
            <mxRectangle width="170" height="40" as="alternateBounds" />
          </mxGeometry>
        </mxCell>
        <mxCell id="jNTaSUSKe1fC9ofm2qRA-232" value="" style="shape=tableRow;horizontal=0;startSize=0;swimlaneHead=0;swimlaneBody=0;strokeColor=inherit;top=0;left=0;bottom=0;right=0;collapsible=0;dropTarget=0;fillColor=none;points=[[0,0.5],[1,0.5]];portConstraint=eastwest;" parent="jNTaSUSKe1fC9ofm2qRA-228" vertex="1">
          <mxGeometry y="40" width="230" height="40" as="geometry" />
        </mxCell>
        <mxCell id="jNTaSUSKe1fC9ofm2qRA-233" value="PK" style="shape=partialRectangle;html=1;whiteSpace=wrap;connectable=0;strokeColor=inherit;overflow=hidden;fillColor=none;top=0;left=0;bottom=0;right=0;pointerEvents=1;" parent="jNTaSUSKe1fC9ofm2qRA-232" vertex="1">
          <mxGeometry width="60" height="40" as="geometry">
            <mxRectangle width="60" height="40" as="alternateBounds" />
          </mxGeometry>
        </mxCell>
        <mxCell id="jNTaSUSKe1fC9ofm2qRA-234" value="id_compra" style="shape=partialRectangle;html=1;whiteSpace=wrap;connectable=0;strokeColor=inherit;overflow=hidden;fillColor=none;top=0;left=0;bottom=0;right=0;pointerEvents=1;" parent="jNTaSUSKe1fC9ofm2qRA-232" vertex="1">
          <mxGeometry x="60" width="170" height="40" as="geometry">
            <mxRectangle width="170" height="40" as="alternateBounds" />
          </mxGeometry>
        </mxCell>
        <mxCell id="jNTaSUSKe1fC9ofm2qRA-235" value="" style="shape=tableRow;horizontal=0;startSize=0;swimlaneHead=0;swimlaneBody=0;strokeColor=inherit;top=0;left=0;bottom=0;right=0;collapsible=0;dropTarget=0;fillColor=none;points=[[0,0.5],[1,0.5]];portConstraint=eastwest;" parent="jNTaSUSKe1fC9ofm2qRA-228" vertex="1">
          <mxGeometry y="80" width="230" height="40" as="geometry" />
        </mxCell>
        <mxCell id="jNTaSUSKe1fC9ofm2qRA-236" value="FK" style="shape=partialRectangle;html=1;whiteSpace=wrap;connectable=0;strokeColor=inherit;overflow=hidden;fillColor=none;top=0;left=0;bottom=0;right=0;pointerEvents=1;" parent="jNTaSUSKe1fC9ofm2qRA-235" vertex="1">
          <mxGeometry width="60" height="40" as="geometry">
            <mxRectangle width="60" height="40" as="alternateBounds" />
          </mxGeometry>
        </mxCell>
        <mxCell id="jNTaSUSKe1fC9ofm2qRA-237" value="id_pagamento" style="shape=partialRectangle;html=1;whiteSpace=wrap;connectable=0;strokeColor=inherit;overflow=hidden;fillColor=none;top=0;left=0;bottom=0;right=0;pointerEvents=1;" parent="jNTaSUSKe1fC9ofm2qRA-235" vertex="1">
          <mxGeometry x="60" width="170" height="40" as="geometry">
            <mxRectangle width="170" height="40" as="alternateBounds" />
          </mxGeometry>
        </mxCell>
        <mxCell id="jNTaSUSKe1fC9ofm2qRA-298" style="shape=tableRow;horizontal=0;startSize=0;swimlaneHead=0;swimlaneBody=0;strokeColor=inherit;top=0;left=0;bottom=0;right=0;collapsible=0;dropTarget=0;fillColor=none;points=[[0,0.5],[1,0.5]];portConstraint=eastwest;" parent="jNTaSUSKe1fC9ofm2qRA-228" vertex="1">
          <mxGeometry y="120" width="230" height="40" as="geometry" />
        </mxCell>
        <mxCell id="jNTaSUSKe1fC9ofm2qRA-299" value="FK" style="shape=partialRectangle;html=1;whiteSpace=wrap;connectable=0;strokeColor=inherit;overflow=hidden;fillColor=none;top=0;left=0;bottom=0;right=0;pointerEvents=1;" parent="jNTaSUSKe1fC9ofm2qRA-298" vertex="1">
          <mxGeometry width="60" height="40" as="geometry">
            <mxRectangle width="60" height="40" as="alternateBounds" />
          </mxGeometry>
        </mxCell>
        <mxCell id="jNTaSUSKe1fC9ofm2qRA-300" value="id_livro" style="shape=partialRectangle;html=1;whiteSpace=wrap;connectable=0;strokeColor=inherit;overflow=hidden;fillColor=none;top=0;left=0;bottom=0;right=0;pointerEvents=1;" parent="jNTaSUSKe1fC9ofm2qRA-298" vertex="1">
          <mxGeometry x="60" width="170" height="40" as="geometry">
            <mxRectangle width="170" height="40" as="alternateBounds" />
          </mxGeometry>
        </mxCell>
        <mxCell id="jNTaSUSKe1fC9ofm2qRA-251" value="" style="endArrow=none;html=1;rounded=0;exitX=1;exitY=0.5;exitDx=0;exitDy=0;entryX=1;entryY=0.5;entryDx=0;entryDy=0;" parent="jNTaSUSKe1fC9ofm2qRA-228" source="jNTaSUSKe1fC9ofm2qRA-235" target="jNTaSUSKe1fC9ofm2qRA-235" edge="1">
          <mxGeometry width="50" height="50" relative="1" as="geometry">
            <mxPoint x="50" y="220" as="sourcePoint" />
            <mxPoint x="100" y="170" as="targetPoint" />
          </mxGeometry>
        </mxCell>
        <mxCell id="jNTaSUSKe1fC9ofm2qRA-256" value="" style="shape=table;startSize=0;container=1;collapsible=0;childLayout=tableLayout;" parent="1" vertex="1">
          <mxGeometry x="-170" y="619" width="230" height="96" as="geometry" />
        </mxCell>
        <mxCell id="jNTaSUSKe1fC9ofm2qRA-257" value="" style="shape=tableRow;horizontal=0;startSize=0;swimlaneHead=0;swimlaneBody=0;strokeColor=inherit;top=0;left=0;bottom=0;right=0;collapsible=0;dropTarget=0;fillColor=none;points=[[0,0.5],[1,0.5]];portConstraint=eastwest;" parent="jNTaSUSKe1fC9ofm2qRA-256" vertex="1">
          <mxGeometry width="230" height="32" as="geometry" />
        </mxCell>
        <mxCell id="jNTaSUSKe1fC9ofm2qRA-258" value="&lt;span style=&quot;font-size: 18px;&quot;&gt;AUTOR&lt;/span&gt;" style="shape=partialRectangle;html=1;whiteSpace=wrap;connectable=0;strokeColor=#666666;overflow=hidden;fillColor=#f5f5f5;top=0;left=0;bottom=0;right=0;pointerEvents=1;rowspan=1;colspan=2;gradientColor=#b3b3b3;" parent="jNTaSUSKe1fC9ofm2qRA-257" vertex="1">
          <mxGeometry width="230" height="32" as="geometry">
            <mxRectangle width="60" height="32" as="alternateBounds" />
          </mxGeometry>
        </mxCell>
        <mxCell id="jNTaSUSKe1fC9ofm2qRA-259" value="&lt;font style=&quot;font-size: 18px;&quot;&gt;Livro&lt;/font&gt;" style="shape=partialRectangle;html=1;whiteSpace=wrap;connectable=0;strokeColor=inherit;overflow=hidden;fillColor=none;top=0;left=0;bottom=0;right=0;pointerEvents=1;" parent="jNTaSUSKe1fC9ofm2qRA-257" vertex="1" visible="0">
          <mxGeometry x="60" width="170" height="32" as="geometry">
            <mxRectangle width="170" height="32" as="alternateBounds" />
          </mxGeometry>
        </mxCell>
        <mxCell id="jNTaSUSKe1fC9ofm2qRA-277" value="" style="shape=tableRow;horizontal=0;startSize=0;swimlaneHead=0;swimlaneBody=0;strokeColor=inherit;top=0;left=0;bottom=0;right=0;collapsible=0;dropTarget=0;fillColor=none;points=[[0,0.5],[1,0.5]];portConstraint=eastwest;" parent="jNTaSUSKe1fC9ofm2qRA-256" vertex="1">
          <mxGeometry y="32" width="230" height="32" as="geometry" />
        </mxCell>
        <mxCell id="jNTaSUSKe1fC9ofm2qRA-278" value="PK" style="shape=partialRectangle;html=1;whiteSpace=wrap;connectable=0;strokeColor=inherit;overflow=hidden;fillColor=none;top=0;left=0;bottom=0;right=0;pointerEvents=1;" parent="jNTaSUSKe1fC9ofm2qRA-277" vertex="1">
          <mxGeometry width="60" height="32" as="geometry">
            <mxRectangle width="60" height="32" as="alternateBounds" />
          </mxGeometry>
        </mxCell>
        <mxCell id="jNTaSUSKe1fC9ofm2qRA-279" value="id_autor" style="shape=partialRectangle;html=1;whiteSpace=wrap;connectable=0;strokeColor=inherit;overflow=hidden;fillColor=none;top=0;left=0;bottom=0;right=0;pointerEvents=1;" parent="jNTaSUSKe1fC9ofm2qRA-277" vertex="1">
          <mxGeometry x="60" width="170" height="32" as="geometry">
            <mxRectangle width="170" height="32" as="alternateBounds" />
          </mxGeometry>
        </mxCell>
        <mxCell id="jNTaSUSKe1fC9ofm2qRA-280" value="" style="shape=tableRow;horizontal=0;startSize=0;swimlaneHead=0;swimlaneBody=0;strokeColor=inherit;top=0;left=0;bottom=0;right=0;collapsible=0;dropTarget=0;fillColor=none;points=[[0,0.5],[1,0.5]];portConstraint=eastwest;" parent="jNTaSUSKe1fC9ofm2qRA-256" vertex="1">
          <mxGeometry y="64" width="230" height="32" as="geometry" />
        </mxCell>
        <mxCell id="jNTaSUSKe1fC9ofm2qRA-281" value="" style="shape=partialRectangle;html=1;whiteSpace=wrap;connectable=0;strokeColor=inherit;overflow=hidden;fillColor=none;top=0;left=0;bottom=0;right=0;pointerEvents=1;" parent="jNTaSUSKe1fC9ofm2qRA-280" vertex="1">
          <mxGeometry width="60" height="32" as="geometry">
            <mxRectangle width="60" height="32" as="alternateBounds" />
          </mxGeometry>
        </mxCell>
        <mxCell id="jNTaSUSKe1fC9ofm2qRA-282" value="nome" style="shape=partialRectangle;html=1;whiteSpace=wrap;connectable=0;strokeColor=inherit;overflow=hidden;fillColor=none;top=0;left=0;bottom=0;right=0;pointerEvents=1;" parent="jNTaSUSKe1fC9ofm2qRA-280" vertex="1">
          <mxGeometry x="60" width="170" height="32" as="geometry">
            <mxRectangle width="170" height="32" as="alternateBounds" />
          </mxGeometry>
        </mxCell>
        <mxCell id="WOXGtfcCQ1MFOfjGKgGG-2" value="" style="endArrow=none;html=1;rounded=0;entryX=-0.001;entryY=0.289;entryDx=0;entryDy=0;exitX=1.003;exitY=0.385;exitDx=0;exitDy=0;exitPerimeter=0;entryPerimeter=0;" parent="1" source="jNTaSUSKe1fC9ofm2qRA-117" target="jNTaSUSKe1fC9ofm2qRA-241" edge="1">
          <mxGeometry width="50" height="50" relative="1" as="geometry">
            <mxPoint x="500" y="140" as="sourcePoint" />
            <mxPoint x="700" y="480" as="targetPoint" />
            <Array as="points">
              <mxPoint x="440" y="530" />
              <mxPoint x="440" />
            </Array>
          </mxGeometry>
        </mxCell>
        <mxCell id="WOXGtfcCQ1MFOfjGKgGG-4" value="" style="endArrow=none;html=1;rounded=0;exitX=1;exitY=0.5;exitDx=0;exitDy=0;entryX=0;entryY=0.5;entryDx=0;entryDy=0;" parent="1" source="jNTaSUSKe1fC9ofm2qRA-235" target="jNTaSUSKe1fC9ofm2qRA-143" edge="1">
          <mxGeometry width="50" height="50" relative="1" as="geometry">
            <mxPoint x="650" y="530" as="sourcePoint" />
            <mxPoint x="700" y="480" as="targetPoint" />
            <Array as="points">
              <mxPoint x="760" y="375" />
              <mxPoint x="760" y="560" />
            </Array>
          </mxGeometry>
        </mxCell>
        <mxCell id="WOXGtfcCQ1MFOfjGKgGG-5" value="" style="endArrow=none;html=1;rounded=0;exitX=0;exitY=0.5;exitDx=0;exitDy=0;entryX=-0.004;entryY=0.15;entryDx=0;entryDy=0;entryPerimeter=0;" parent="1" source="jNTaSUSKe1fC9ofm2qRA-182" edge="1" target="jNTaSUSKe1fC9ofm2qRA-143">
          <mxGeometry width="50" height="50" relative="1" as="geometry">
            <mxPoint x="650" y="530" as="sourcePoint" />
            <mxPoint x="830" y="480" as="targetPoint" />
            <Array as="points">
              <mxPoint x="790" y="210" />
              <mxPoint x="790" y="539" />
            </Array>
          </mxGeometry>
        </mxCell>
        <mxCell id="WOXGtfcCQ1MFOfjGKgGG-17" value="" style="endArrow=none;html=1;rounded=0;exitX=0;exitY=0.5;exitDx=0;exitDy=0;entryX=0;entryY=0.5;entryDx=0;entryDy=0;" parent="1" source="jNTaSUSKe1fC9ofm2qRA-129" target="jNTaSUSKe1fC9ofm2qRA-95" edge="1">
          <mxGeometry width="50" height="50" relative="1" as="geometry">
            <mxPoint x="650" y="530" as="sourcePoint" />
            <mxPoint x="700" y="480" as="targetPoint" />
            <Array as="points">
              <mxPoint x="140" y="655" />
              <mxPoint x="140" y="230" />
            </Array>
          </mxGeometry>
        </mxCell>
        <mxCell id="WOXGtfcCQ1MFOfjGKgGG-26" value="" style="endArrow=none;html=1;rounded=0;exitX=1;exitY=0.5;exitDx=0;exitDy=0;" parent="1" source="jNTaSUSKe1fC9ofm2qRA-123" edge="1">
          <mxGeometry width="50" height="50" relative="1" as="geometry">
            <mxPoint x="780" y="530" as="sourcePoint" />
            <mxPoint x="490" y="575" as="targetPoint" />
            <Array as="points">
              <mxPoint x="440" y="575" />
              <mxPoint x="470" y="575" />
            </Array>
          </mxGeometry>
        </mxCell>
        <mxCell id="WOXGtfcCQ1MFOfjGKgGG-27" value="" style="endArrow=none;html=1;rounded=0;exitX=0;exitY=0.5;exitDx=0;exitDy=0;" parent="1" source="jNTaSUSKe1fC9ofm2qRA-135" edge="1">
          <mxGeometry width="50" height="50" relative="1" as="geometry">
            <mxPoint x="250" y="430" as="sourcePoint" />
            <mxPoint x="60" y="157" as="targetPoint" />
            <Array as="points">
              <mxPoint x="100" y="695" />
              <mxPoint x="100" y="157" />
            </Array>
          </mxGeometry>
        </mxCell>
        <mxCell id="WOXGtfcCQ1MFOfjGKgGG-28" value="" style="endArrow=none;html=1;rounded=0;exitX=0;exitY=0.5;exitDx=0;exitDy=0;entryX=-0.003;entryY=0.607;entryDx=0;entryDy=0;entryPerimeter=0;" parent="1" source="jNTaSUSKe1fC9ofm2qRA-63" target="jNTaSUSKe1fC9ofm2qRA-277" edge="1">
          <mxGeometry width="50" height="50" relative="1" as="geometry">
            <mxPoint x="250" y="430" as="sourcePoint" />
            <mxPoint x="300" y="380" as="targetPoint" />
            <Array as="points">
              <mxPoint x="-200" y="470" />
              <mxPoint x="-200" y="670" />
            </Array>
          </mxGeometry>
        </mxCell>
        <mxCell id="WOXGtfcCQ1MFOfjGKgGG-30" value="" style="endArrow=none;html=1;rounded=0;exitX=1;exitY=0.5;exitDx=0;exitDy=0;entryX=-0.003;entryY=0.41;entryDx=0;entryDy=0;entryPerimeter=0;" parent="1" source="jNTaSUSKe1fC9ofm2qRA-126" target="jNTaSUSKe1fC9ofm2qRA-139" edge="1">
          <mxGeometry width="50" height="50" relative="1" as="geometry">
            <mxPoint x="400" y="660" as="sourcePoint" />
            <mxPoint x="830" y="580" as="targetPoint" />
            <Array as="points">
              <mxPoint x="440" y="615" />
              <mxPoint x="440" y="720" />
              <mxPoint x="760" y="720" />
              <mxPoint x="760" y="581" />
            </Array>
          </mxGeometry>
        </mxCell>
        <mxCell id="WOXGtfcCQ1MFOfjGKgGG-31" value="" style="endArrow=none;html=1;rounded=0;entryX=1;entryY=0.5;entryDx=0;entryDy=0;exitX=1;exitY=0.5;exitDx=0;exitDy=0;" parent="1" source="jNTaSUSKe1fC9ofm2qRA-194" target="jNTaSUSKe1fC9ofm2qRA-185" edge="1">
          <mxGeometry width="50" height="50" relative="1" as="geometry">
            <mxPoint x="610" y="440" as="sourcePoint" />
            <mxPoint x="660" y="390" as="targetPoint" />
            <Array as="points">
              <mxPoint x="1090" y="350" />
              <mxPoint x="1090" y="170" />
            </Array>
          </mxGeometry>
        </mxCell>
        <mxCell id="WOXGtfcCQ1MFOfjGKgGG-39" value="" style="endArrow=none;html=1;rounded=0;entryX=0;entryY=0.5;entryDx=0;entryDy=0;exitX=1.004;exitY=0.183;exitDx=0;exitDy=0;exitPerimeter=0;" parent="1" target="jNTaSUSKe1fC9ofm2qRA-173" edge="1" source="jNTaSUSKe1fC9ofm2qRA-8">
          <mxGeometry width="50" height="50" relative="1" as="geometry">
            <mxPoint x="100" y="130" as="sourcePoint" />
            <mxPoint x="630" y="-20" as="targetPoint" />
            <Array as="points">
              <mxPoint x="100" y="121" />
              <mxPoint x="100" y="-30" />
            </Array>
          </mxGeometry>
        </mxCell>
        <mxCell id="-hLwLj78S3W-SjMAlXVM-6" value="" style="endArrow=none;html=1;rounded=0;entryX=1;entryY=0.5;entryDx=0;entryDy=0;exitX=-0.002;exitY=0.392;exitDx=0;exitDy=0;exitPerimeter=0;" edge="1" parent="1" source="jNTaSUSKe1fC9ofm2qRA-298" target="jNTaSUSKe1fC9ofm2qRA-8">
          <mxGeometry width="50" height="50" relative="1" as="geometry">
            <mxPoint x="480" y="420" as="sourcePoint" />
            <mxPoint x="120" y="150" as="targetPoint" />
            <Array as="points">
              <mxPoint x="420" y="410" />
              <mxPoint x="120" y="410" />
              <mxPoint x="120" y="140" />
            </Array>
          </mxGeometry>
        </mxCell>
        <mxCell id="-hLwLj78S3W-SjMAlXVM-16" value="N" style="text;html=1;align=center;verticalAlign=middle;resizable=0;points=[];autosize=1;strokeColor=none;fillColor=none;" vertex="1" parent="1">
          <mxGeometry x="90" y="670" width="30" height="30" as="geometry" />
        </mxCell>
        <mxCell id="-hLwLj78S3W-SjMAlXVM-17" value="N" style="text;html=1;align=center;verticalAlign=middle;resizable=0;points=[];autosize=1;strokeColor=none;fillColor=none;" vertex="1" parent="1">
          <mxGeometry x="70" y="150" width="30" height="30" as="geometry" />
        </mxCell>
        <mxCell id="-hLwLj78S3W-SjMAlXVM-18" value="N" style="text;html=1;align=center;verticalAlign=middle;resizable=0;points=[];autosize=1;strokeColor=none;fillColor=none;" vertex="1" parent="1">
          <mxGeometry x="130" y="630" width="30" height="30" as="geometry" />
        </mxCell>
        <mxCell id="-hLwLj78S3W-SjMAlXVM-19" value="1" style="text;html=1;align=center;verticalAlign=middle;resizable=0;points=[];autosize=1;strokeColor=none;fillColor=none;" vertex="1" parent="1">
          <mxGeometry x="150" y="210" width="30" height="30" as="geometry" />
        </mxCell>
        <mxCell id="-hLwLj78S3W-SjMAlXVM-23" value="N" style="text;html=1;align=center;verticalAlign=middle;resizable=0;points=[];autosize=1;strokeColor=none;fillColor=none;" vertex="1" parent="1">
          <mxGeometry x="420" y="610" width="30" height="30" as="geometry" />
        </mxCell>
        <mxCell id="-hLwLj78S3W-SjMAlXVM-26" value="1" style="text;html=1;align=center;verticalAlign=middle;resizable=0;points=[];autosize=1;strokeColor=none;fillColor=none;" vertex="1" parent="1">
          <mxGeometry x="470" y="305" width="30" height="30" as="geometry" />
        </mxCell>
        <mxCell id="-hLwLj78S3W-SjMAlXVM-27" value="N" style="text;html=1;align=center;verticalAlign=middle;resizable=0;points=[];autosize=1;strokeColor=none;fillColor=none;" vertex="1" parent="1">
          <mxGeometry x="440" y="520" width="30" height="30" as="geometry" />
        </mxCell>
        <mxCell id="-hLwLj78S3W-SjMAlXVM-32" value="1" style="text;html=1;align=center;verticalAlign=middle;resizable=0;points=[];autosize=1;strokeColor=none;fillColor=none;" vertex="1" parent="1">
          <mxGeometry x="750" y="580" width="30" height="30" as="geometry" />
        </mxCell>
        <mxCell id="-hLwLj78S3W-SjMAlXVM-35" value="1" style="text;html=1;align=center;verticalAlign=middle;resizable=0;points=[];autosize=1;strokeColor=none;fillColor=none;" vertex="1" parent="1">
          <mxGeometry x="750" y="530" width="30" height="30" as="geometry" />
        </mxCell>
        <mxCell id="-hLwLj78S3W-SjMAlXVM-36" value="N" style="text;html=1;align=center;verticalAlign=middle;resizable=0;points=[];autosize=1;strokeColor=none;fillColor=none;" vertex="1" parent="1">
          <mxGeometry x="740" y="370" width="30" height="30" as="geometry" />
        </mxCell>
        <mxCell id="-hLwLj78S3W-SjMAlXVM-37" value="" style="endArrow=none;html=1;rounded=0;entryX=0;entryY=0.5;entryDx=0;entryDy=0;exitX=0.999;exitY=0.761;exitDx=0;exitDy=0;exitPerimeter=0;" edge="1" parent="1" source="jNTaSUSKe1fC9ofm2qRA-117" target="jNTaSUSKe1fC9ofm2qRA-232">
          <mxGeometry width="50" height="50" relative="1" as="geometry">
            <mxPoint x="440" y="490" as="sourcePoint" />
            <mxPoint x="540" y="260" as="targetPoint" />
            <Array as="points">
              <mxPoint x="460" y="545" />
              <mxPoint x="460" y="335" />
            </Array>
          </mxGeometry>
        </mxCell>
        <mxCell id="-hLwLj78S3W-SjMAlXVM-39" value="1" style="text;html=1;align=center;verticalAlign=middle;resizable=0;points=[];autosize=1;strokeColor=none;fillColor=none;" vertex="1" parent="1">
          <mxGeometry x="790" y="20" width="30" height="30" as="geometry" />
        </mxCell>
        <mxCell id="-hLwLj78S3W-SjMAlXVM-40" value="N" style="text;html=1;align=center;verticalAlign=middle;resizable=0;points=[];autosize=1;strokeColor=none;fillColor=none;" vertex="1" parent="1">
          <mxGeometry x="410" y="510" width="30" height="30" as="geometry" />
        </mxCell>
        <mxCell id="-hLwLj78S3W-SjMAlXVM-41" value="N" style="text;html=1;align=center;verticalAlign=middle;resizable=0;points=[];autosize=1;strokeColor=none;fillColor=none;" vertex="1" parent="1">
          <mxGeometry x="100" y="120" width="30" height="30" as="geometry" />
        </mxCell>
        <mxCell id="-hLwLj78S3W-SjMAlXVM-43" value="N" style="text;html=1;align=center;verticalAlign=middle;resizable=0;points=[];autosize=1;strokeColor=none;fillColor=none;" vertex="1" parent="1">
          <mxGeometry x="470" y="390" width="30" height="30" as="geometry" />
        </mxCell>
        <mxCell id="-hLwLj78S3W-SjMAlXVM-44" value="N" style="text;html=1;align=center;verticalAlign=middle;resizable=0;points=[];autosize=1;strokeColor=none;fillColor=none;" vertex="1" parent="1">
          <mxGeometry x="70" y="100" width="30" height="30" as="geometry" />
        </mxCell>
        <mxCell id="-hLwLj78S3W-SjMAlXVM-45" value="N" style="text;html=1;align=center;verticalAlign=middle;resizable=0;points=[];autosize=1;strokeColor=none;fillColor=none;" vertex="1" parent="1">
          <mxGeometry x="790" y="-60" width="30" height="30" as="geometry" />
        </mxCell>
        <mxCell id="-hLwLj78S3W-SjMAlXVM-47" value="1" style="text;html=1;align=center;verticalAlign=middle;resizable=0;points=[];autosize=1;strokeColor=none;fillColor=none;" vertex="1" parent="1">
          <mxGeometry x="1057" y="325" width="30" height="30" as="geometry" />
        </mxCell>
        <mxCell id="-hLwLj78S3W-SjMAlXVM-48" value="N" style="text;html=1;align=center;verticalAlign=middle;resizable=0;points=[];autosize=1;strokeColor=none;fillColor=none;" vertex="1" parent="1">
          <mxGeometry x="1057" y="165" width="30" height="30" as="geometry" />
        </mxCell>
        <mxCell id="-hLwLj78S3W-SjMAlXVM-116" value="" style="edgeStyle=orthogonalEdgeStyle;rounded=0;orthogonalLoop=1;jettySize=auto;html=1;" edge="1" parent="1" source="-hLwLj78S3W-SjMAlXVM-50" target="-hLwLj78S3W-SjMAlXVM-115">
          <mxGeometry relative="1" as="geometry" />
        </mxCell>
        <mxCell id="-hLwLj78S3W-SjMAlXVM-50" value="1" style="text;html=1;align=center;verticalAlign=middle;resizable=0;points=[];autosize=1;strokeColor=none;fillColor=none;" vertex="1" parent="1">
          <mxGeometry x="780" y="510" width="30" height="30" as="geometry" />
        </mxCell>
        <mxCell id="-hLwLj78S3W-SjMAlXVM-51" value="N" style="text;html=1;align=center;verticalAlign=middle;resizable=0;points=[];autosize=1;strokeColor=none;fillColor=none;" vertex="1" parent="1">
          <mxGeometry x="780" y="210" width="30" height="30" as="geometry" />
        </mxCell>
        <mxCell id="-hLwLj78S3W-SjMAlXVM-52" value="N" style="text;html=1;align=center;verticalAlign=middle;resizable=0;points=[];autosize=1;strokeColor=none;fillColor=none;" vertex="1" parent="1">
          <mxGeometry x="-210" y="470" width="30" height="30" as="geometry" />
        </mxCell>
        <mxCell id="-hLwLj78S3W-SjMAlXVM-53" value="1" style="edgeLabel;resizable=0;html=1;align=right;verticalAlign=bottom;" connectable="0" vertex="1" parent="1">
          <mxGeometry x="-190.0004910460865" y="670" as="geometry" />
        </mxCell>
        <mxCell id="-hLwLj78S3W-SjMAlXVM-55" value="" style="shape=table;startSize=0;container=1;collapsible=0;childLayout=tableLayout;fontSize=13;" vertex="1" parent="1">
          <mxGeometry x="490" y="80" width="230" height="160" as="geometry" />
        </mxCell>
        <mxCell id="-hLwLj78S3W-SjMAlXVM-56" value="" style="shape=tableRow;horizontal=0;startSize=0;swimlaneHead=0;swimlaneBody=0;strokeColor=inherit;top=0;left=0;bottom=0;right=0;collapsible=0;dropTarget=0;fillColor=none;points=[[0,0.5],[1,0.5]];portConstraint=eastwest;" vertex="1" parent="-hLwLj78S3W-SjMAlXVM-55">
          <mxGeometry width="230" height="40" as="geometry" />
        </mxCell>
        <mxCell id="-hLwLj78S3W-SjMAlXVM-57" value="&lt;font style=&quot;font-size: 18px;&quot;&gt;DEVOLUCAO&lt;/font&gt;" style="shape=partialRectangle;html=1;whiteSpace=wrap;connectable=0;strokeColor=#666666;overflow=hidden;fillColor=#f5f5f5;top=0;left=0;bottom=0;right=0;pointerEvents=1;rowspan=1;colspan=2;gradientColor=#b3b3b3;fontSize=14;" vertex="1" parent="-hLwLj78S3W-SjMAlXVM-56">
          <mxGeometry width="230" height="40" as="geometry">
            <mxRectangle width="60" height="40" as="alternateBounds" />
          </mxGeometry>
        </mxCell>
        <mxCell id="-hLwLj78S3W-SjMAlXVM-58" value="&lt;font style=&quot;font-size: 18px;&quot;&gt;Livro&lt;/font&gt;" style="shape=partialRectangle;html=1;whiteSpace=wrap;connectable=0;strokeColor=inherit;overflow=hidden;fillColor=none;top=0;left=0;bottom=0;right=0;pointerEvents=1;" vertex="1" visible="0" parent="-hLwLj78S3W-SjMAlXVM-56">
          <mxGeometry x="60" width="170" height="40" as="geometry">
            <mxRectangle width="170" height="40" as="alternateBounds" />
          </mxGeometry>
        </mxCell>
        <mxCell id="-hLwLj78S3W-SjMAlXVM-59" value="" style="shape=tableRow;horizontal=0;startSize=0;swimlaneHead=0;swimlaneBody=0;strokeColor=inherit;top=0;left=0;bottom=0;right=0;collapsible=0;dropTarget=0;fillColor=none;points=[[0,0.5],[1,0.5]];portConstraint=eastwest;" vertex="1" parent="-hLwLj78S3W-SjMAlXVM-55">
          <mxGeometry y="40" width="230" height="40" as="geometry" />
        </mxCell>
        <mxCell id="-hLwLj78S3W-SjMAlXVM-60" value="PK" style="shape=partialRectangle;html=1;whiteSpace=wrap;connectable=0;strokeColor=inherit;overflow=hidden;fillColor=none;top=0;left=0;bottom=0;right=0;pointerEvents=1;" vertex="1" parent="-hLwLj78S3W-SjMAlXVM-59">
          <mxGeometry width="60" height="40" as="geometry">
            <mxRectangle width="60" height="40" as="alternateBounds" />
          </mxGeometry>
        </mxCell>
        <mxCell id="-hLwLj78S3W-SjMAlXVM-61" value="id_rec_livro" style="shape=partialRectangle;html=1;whiteSpace=wrap;connectable=0;strokeColor=inherit;overflow=hidden;fillColor=none;top=0;left=0;bottom=0;right=0;pointerEvents=1;" vertex="1" parent="-hLwLj78S3W-SjMAlXVM-59">
          <mxGeometry x="60" width="170" height="40" as="geometry">
            <mxRectangle width="170" height="40" as="alternateBounds" />
          </mxGeometry>
        </mxCell>
        <mxCell id="-hLwLj78S3W-SjMAlXVM-62" value="" style="shape=tableRow;horizontal=0;startSize=0;swimlaneHead=0;swimlaneBody=0;strokeColor=inherit;top=0;left=0;bottom=0;right=0;collapsible=0;dropTarget=0;fillColor=none;points=[[0,0.5],[1,0.5]];portConstraint=eastwest;" vertex="1" parent="-hLwLj78S3W-SjMAlXVM-55">
          <mxGeometry y="80" width="230" height="40" as="geometry" />
        </mxCell>
        <mxCell id="-hLwLj78S3W-SjMAlXVM-63" value="FK" style="shape=partialRectangle;html=1;whiteSpace=wrap;connectable=0;strokeColor=inherit;overflow=hidden;fillColor=none;top=0;left=0;bottom=0;right=0;pointerEvents=1;" vertex="1" parent="-hLwLj78S3W-SjMAlXVM-62">
          <mxGeometry width="60" height="40" as="geometry">
            <mxRectangle width="60" height="40" as="alternateBounds" />
          </mxGeometry>
        </mxCell>
        <mxCell id="-hLwLj78S3W-SjMAlXVM-64" value="id_aluguel" style="shape=partialRectangle;html=1;whiteSpace=wrap;connectable=0;strokeColor=inherit;overflow=hidden;fillColor=none;top=0;left=0;bottom=0;right=0;pointerEvents=1;" vertex="1" parent="-hLwLj78S3W-SjMAlXVM-62">
          <mxGeometry x="60" width="170" height="40" as="geometry">
            <mxRectangle width="170" height="40" as="alternateBounds" />
          </mxGeometry>
        </mxCell>
        <mxCell id="-hLwLj78S3W-SjMAlXVM-65" style="shape=tableRow;horizontal=0;startSize=0;swimlaneHead=0;swimlaneBody=0;strokeColor=inherit;top=0;left=0;bottom=0;right=0;collapsible=0;dropTarget=0;fillColor=none;points=[[0,0.5],[1,0.5]];portConstraint=eastwest;" vertex="1" parent="-hLwLj78S3W-SjMAlXVM-55">
          <mxGeometry y="120" width="230" height="40" as="geometry" />
        </mxCell>
        <mxCell id="-hLwLj78S3W-SjMAlXVM-66" value="" style="shape=partialRectangle;html=1;whiteSpace=wrap;connectable=0;strokeColor=inherit;overflow=hidden;fillColor=none;top=0;left=0;bottom=0;right=0;pointerEvents=1;" vertex="1" parent="-hLwLj78S3W-SjMAlXVM-65">
          <mxGeometry width="60" height="40" as="geometry">
            <mxRectangle width="60" height="40" as="alternateBounds" />
          </mxGeometry>
        </mxCell>
        <mxCell id="-hLwLj78S3W-SjMAlXVM-67" value="data_recebimento" style="shape=partialRectangle;html=1;whiteSpace=wrap;connectable=0;strokeColor=inherit;overflow=hidden;fillColor=none;top=0;left=0;bottom=0;right=0;pointerEvents=1;" vertex="1" parent="-hLwLj78S3W-SjMAlXVM-65">
          <mxGeometry x="60" width="170" height="40" as="geometry">
            <mxRectangle width="170" height="40" as="alternateBounds" />
          </mxGeometry>
        </mxCell>
        <mxCell id="-hLwLj78S3W-SjMAlXVM-72" value="" style="endArrow=none;html=1;rounded=0;exitX=-0.001;exitY=0.745;exitDx=0;exitDy=0;entryX=1;entryY=0.5;entryDx=0;entryDy=0;exitPerimeter=0;" edge="1" parent="1" source="jNTaSUSKe1fC9ofm2qRA-241" target="-hLwLj78S3W-SjMAlXVM-62">
          <mxGeometry width="50" height="50" relative="1" as="geometry">
            <mxPoint x="950" y="230" as="sourcePoint" />
            <mxPoint x="1000" y="180" as="targetPoint" />
            <Array as="points">
              <mxPoint x="760" y="20" />
              <mxPoint x="760" y="180" />
            </Array>
          </mxGeometry>
        </mxCell>
        <mxCell id="-hLwLj78S3W-SjMAlXVM-74" value="" style="shape=table;startSize=0;container=1;collapsible=0;childLayout=tableLayout;fontSize=17;" vertex="1" parent="1">
          <mxGeometry x="1120" y="520" width="230" height="240" as="geometry" />
        </mxCell>
        <mxCell id="-hLwLj78S3W-SjMAlXVM-75" value="" style="shape=tableRow;horizontal=0;startSize=0;swimlaneHead=0;swimlaneBody=0;strokeColor=inherit;top=0;left=0;bottom=0;right=0;collapsible=0;dropTarget=0;fillColor=none;points=[[0,0.5],[1,0.5]];portConstraint=eastwest;" vertex="1" parent="-hLwLj78S3W-SjMAlXVM-74">
          <mxGeometry width="230" height="40" as="geometry" />
        </mxCell>
        <mxCell id="-hLwLj78S3W-SjMAlXVM-76" value="&lt;font style=&quot;font-size: 18px;&quot;&gt;RECEBIMENTO&lt;/font&gt;" style="shape=partialRectangle;html=1;whiteSpace=wrap;connectable=0;strokeColor=#666666;overflow=hidden;fillColor=#f5f5f5;top=0;left=0;bottom=0;right=0;pointerEvents=1;rowspan=1;colspan=2;gradientColor=#b3b3b3;fontSize=14;" vertex="1" parent="-hLwLj78S3W-SjMAlXVM-75">
          <mxGeometry width="230" height="40" as="geometry">
            <mxRectangle width="60" height="40" as="alternateBounds" />
          </mxGeometry>
        </mxCell>
        <mxCell id="-hLwLj78S3W-SjMAlXVM-77" value="&lt;font style=&quot;font-size: 18px;&quot;&gt;Livro&lt;/font&gt;" style="shape=partialRectangle;html=1;whiteSpace=wrap;connectable=0;strokeColor=inherit;overflow=hidden;fillColor=none;top=0;left=0;bottom=0;right=0;pointerEvents=1;" vertex="1" visible="0" parent="-hLwLj78S3W-SjMAlXVM-75">
          <mxGeometry x="60" width="170" height="40" as="geometry">
            <mxRectangle width="170" height="40" as="alternateBounds" />
          </mxGeometry>
        </mxCell>
        <mxCell id="-hLwLj78S3W-SjMAlXVM-78" value="" style="shape=tableRow;horizontal=0;startSize=0;swimlaneHead=0;swimlaneBody=0;strokeColor=inherit;top=0;left=0;bottom=0;right=0;collapsible=0;dropTarget=0;fillColor=none;points=[[0,0.5],[1,0.5]];portConstraint=eastwest;" vertex="1" parent="-hLwLj78S3W-SjMAlXVM-74">
          <mxGeometry y="40" width="230" height="40" as="geometry" />
        </mxCell>
        <mxCell id="-hLwLj78S3W-SjMAlXVM-79" value="PK" style="shape=partialRectangle;html=1;whiteSpace=wrap;connectable=0;strokeColor=inherit;overflow=hidden;fillColor=none;top=0;left=0;bottom=0;right=0;pointerEvents=1;" vertex="1" parent="-hLwLj78S3W-SjMAlXVM-78">
          <mxGeometry width="60" height="40" as="geometry">
            <mxRectangle width="60" height="40" as="alternateBounds" />
          </mxGeometry>
        </mxCell>
        <mxCell id="-hLwLj78S3W-SjMAlXVM-80" value="id_recebimento" style="shape=partialRectangle;html=1;whiteSpace=wrap;connectable=0;strokeColor=inherit;overflow=hidden;fillColor=none;top=0;left=0;bottom=0;right=0;pointerEvents=1;" vertex="1" parent="-hLwLj78S3W-SjMAlXVM-78">
          <mxGeometry x="60" width="170" height="40" as="geometry">
            <mxRectangle width="170" height="40" as="alternateBounds" />
          </mxGeometry>
        </mxCell>
        <mxCell id="-hLwLj78S3W-SjMAlXVM-87" style="shape=tableRow;horizontal=0;startSize=0;swimlaneHead=0;swimlaneBody=0;strokeColor=inherit;top=0;left=0;bottom=0;right=0;collapsible=0;dropTarget=0;fillColor=none;points=[[0,0.5],[1,0.5]];portConstraint=eastwest;" vertex="1" parent="-hLwLj78S3W-SjMAlXVM-74">
          <mxGeometry y="80" width="230" height="40" as="geometry" />
        </mxCell>
        <mxCell id="-hLwLj78S3W-SjMAlXVM-88" value="FK" style="shape=partialRectangle;html=1;whiteSpace=wrap;connectable=0;strokeColor=inherit;overflow=hidden;fillColor=none;top=0;left=0;bottom=0;right=0;pointerEvents=1;" vertex="1" parent="-hLwLj78S3W-SjMAlXVM-87">
          <mxGeometry width="60" height="40" as="geometry">
            <mxRectangle width="60" height="40" as="alternateBounds" />
          </mxGeometry>
        </mxCell>
        <mxCell id="-hLwLj78S3W-SjMAlXVM-89" value="id_multa" style="shape=partialRectangle;html=1;whiteSpace=wrap;connectable=0;strokeColor=inherit;overflow=hidden;fillColor=none;top=0;left=0;bottom=0;right=0;pointerEvents=1;" vertex="1" parent="-hLwLj78S3W-SjMAlXVM-87">
          <mxGeometry x="60" width="170" height="40" as="geometry">
            <mxRectangle width="170" height="40" as="alternateBounds" />
          </mxGeometry>
        </mxCell>
        <mxCell id="-hLwLj78S3W-SjMAlXVM-81" value="" style="shape=tableRow;horizontal=0;startSize=0;swimlaneHead=0;swimlaneBody=0;strokeColor=inherit;top=0;left=0;bottom=0;right=0;collapsible=0;dropTarget=0;fillColor=none;points=[[0,0.5],[1,0.5]];portConstraint=eastwest;" vertex="1" parent="-hLwLj78S3W-SjMAlXVM-74">
          <mxGeometry y="120" width="230" height="40" as="geometry" />
        </mxCell>
        <mxCell id="-hLwLj78S3W-SjMAlXVM-82" value="" style="shape=partialRectangle;html=1;whiteSpace=wrap;connectable=0;strokeColor=inherit;overflow=hidden;fillColor=none;top=0;left=0;bottom=0;right=0;pointerEvents=1;" vertex="1" parent="-hLwLj78S3W-SjMAlXVM-81">
          <mxGeometry width="60" height="40" as="geometry">
            <mxRectangle width="60" height="40" as="alternateBounds" />
          </mxGeometry>
        </mxCell>
        <mxCell id="-hLwLj78S3W-SjMAlXVM-83" value="valor" style="shape=partialRectangle;html=1;whiteSpace=wrap;connectable=0;strokeColor=inherit;overflow=hidden;fillColor=none;top=0;left=0;bottom=0;right=0;pointerEvents=1;" vertex="1" parent="-hLwLj78S3W-SjMAlXVM-81">
          <mxGeometry x="60" width="170" height="40" as="geometry">
            <mxRectangle width="170" height="40" as="alternateBounds" />
          </mxGeometry>
        </mxCell>
        <mxCell id="-hLwLj78S3W-SjMAlXVM-84" style="shape=tableRow;horizontal=0;startSize=0;swimlaneHead=0;swimlaneBody=0;strokeColor=inherit;top=0;left=0;bottom=0;right=0;collapsible=0;dropTarget=0;fillColor=none;points=[[0,0.5],[1,0.5]];portConstraint=eastwest;" vertex="1" parent="-hLwLj78S3W-SjMAlXVM-74">
          <mxGeometry y="160" width="230" height="40" as="geometry" />
        </mxCell>
        <mxCell id="-hLwLj78S3W-SjMAlXVM-85" value="" style="shape=partialRectangle;html=1;whiteSpace=wrap;connectable=0;strokeColor=inherit;overflow=hidden;fillColor=none;top=0;left=0;bottom=0;right=0;pointerEvents=1;" vertex="1" parent="-hLwLj78S3W-SjMAlXVM-84">
          <mxGeometry width="60" height="40" as="geometry">
            <mxRectangle width="60" height="40" as="alternateBounds" />
          </mxGeometry>
        </mxCell>
        <mxCell id="-hLwLj78S3W-SjMAlXVM-86" value="valor_recebido" style="shape=partialRectangle;html=1;whiteSpace=wrap;connectable=0;strokeColor=inherit;overflow=hidden;fillColor=none;top=0;left=0;bottom=0;right=0;pointerEvents=1;" vertex="1" parent="-hLwLj78S3W-SjMAlXVM-84">
          <mxGeometry x="60" width="170" height="40" as="geometry">
            <mxRectangle width="170" height="40" as="alternateBounds" />
          </mxGeometry>
        </mxCell>
        <mxCell id="-hLwLj78S3W-SjMAlXVM-104" style="shape=tableRow;horizontal=0;startSize=0;swimlaneHead=0;swimlaneBody=0;strokeColor=inherit;top=0;left=0;bottom=0;right=0;collapsible=0;dropTarget=0;fillColor=none;points=[[0,0.5],[1,0.5]];portConstraint=eastwest;" vertex="1" parent="-hLwLj78S3W-SjMAlXVM-74">
          <mxGeometry y="200" width="230" height="40" as="geometry" />
        </mxCell>
        <mxCell id="-hLwLj78S3W-SjMAlXVM-105" value="FK" style="shape=partialRectangle;html=1;whiteSpace=wrap;connectable=0;strokeColor=inherit;overflow=hidden;fillColor=none;top=0;left=0;bottom=0;right=0;pointerEvents=1;" vertex="1" parent="-hLwLj78S3W-SjMAlXVM-104">
          <mxGeometry width="60" height="40" as="geometry">
            <mxRectangle width="60" height="40" as="alternateBounds" />
          </mxGeometry>
        </mxCell>
        <mxCell id="-hLwLj78S3W-SjMAlXVM-106" value="id_operacao" style="shape=partialRectangle;html=1;whiteSpace=wrap;connectable=0;strokeColor=inherit;overflow=hidden;fillColor=none;top=0;left=0;bottom=0;right=0;pointerEvents=1;" vertex="1" parent="-hLwLj78S3W-SjMAlXVM-104">
          <mxGeometry x="60" width="170" height="40" as="geometry">
            <mxRectangle width="170" height="40" as="alternateBounds" />
          </mxGeometry>
        </mxCell>
        <mxCell id="-hLwLj78S3W-SjMAlXVM-95" value="1" style="text;html=1;align=center;verticalAlign=middle;resizable=0;points=[];autosize=1;strokeColor=none;fillColor=none;" vertex="1" parent="1">
          <mxGeometry x="790" y="-20" width="30" height="30" as="geometry" />
        </mxCell>
        <mxCell id="-hLwLj78S3W-SjMAlXVM-96" value="1" style="text;html=1;align=center;verticalAlign=middle;resizable=0;points=[];autosize=1;strokeColor=none;fillColor=none;" vertex="1" parent="1">
          <mxGeometry x="710" y="150" width="30" height="30" as="geometry" />
        </mxCell>
        <mxCell id="-hLwLj78S3W-SjMAlXVM-100" value="" style="endArrow=none;html=1;rounded=0;exitX=0.027;exitY=0.833;exitDx=0;exitDy=0;entryX=0;entryY=0.5;entryDx=0;entryDy=0;exitPerimeter=0;" edge="1" parent="1" source="-hLwLj78S3W-SjMAlXVM-108" target="-hLwLj78S3W-SjMAlXVM-104">
          <mxGeometry width="50" height="50" relative="1" as="geometry">
            <mxPoint x="370" y="770" as="sourcePoint" />
            <mxPoint x="1150" y="740" as="targetPoint" />
            <Array as="points">
              <mxPoint x="420" y="740" />
              <mxPoint x="440" y="740" />
              <mxPoint x="1080" y="740" />
              <mxPoint x="1090" y="740" />
            </Array>
          </mxGeometry>
        </mxCell>
        <mxCell id="-hLwLj78S3W-SjMAlXVM-107" value="N" style="text;html=1;align=center;verticalAlign=middle;resizable=0;points=[];autosize=1;strokeColor=none;fillColor=none;" vertex="1" parent="1">
          <mxGeometry x="1090" y="715" width="30" height="30" as="geometry" />
        </mxCell>
        <mxCell id="-hLwLj78S3W-SjMAlXVM-108" value="1" style="text;html=1;align=center;verticalAlign=middle;resizable=0;points=[];autosize=1;strokeColor=none;fillColor=none;" vertex="1" parent="1">
          <mxGeometry x="399" y="715" width="30" height="30" as="geometry" />
        </mxCell>
        <mxCell id="-hLwLj78S3W-SjMAlXVM-112" value="N" style="text;html=1;align=center;verticalAlign=middle;resizable=0;points=[];autosize=1;strokeColor=none;fillColor=none;" vertex="1" parent="1">
          <mxGeometry x="390" y="550" width="30" height="30" as="geometry" />
        </mxCell>
        <mxCell id="-hLwLj78S3W-SjMAlXVM-113" value="1" style="text;html=1;align=center;verticalAlign=middle;resizable=0;points=[];autosize=1;strokeColor=none;fillColor=none;" vertex="1" parent="1">
          <mxGeometry x="470" y="550" width="30" height="30" as="geometry" />
        </mxCell>
        <mxCell id="-hLwLj78S3W-SjMAlXVM-123" value="" style="rounded=0;whiteSpace=wrap;html=1;strokeColor=#FFFFFF;" vertex="1" parent="1">
          <mxGeometry x="1350" y="760" width="40" height="40" as="geometry" />
        </mxCell>
      </root>
    </mxGraphModel>
  </diagram>
</mxfile>
